/* XPM */
static char * alldesktoppressed_xpm[] = {
"20 21 116 2",
"  	c None",
". 	c #E1DFDD",
"+ 	c #95A5B8",
"@ 	c #849DB9",
"# 	c #7A98BB",
"$ 	c #7596BB",
"% 	c #859EBA",
"& 	c #99A7B7",
"* 	c #7C99BA",
"= 	c #5586BF",
"- 	c #397AC4",
"; 	c #5989BF",
"> 	c #789CC4",
", 	c #5888BF",
"' 	c #6B90BB",
") 	c #3D7CC5",
"! 	c #AEB9C6",
"~ 	c #D8D8D8",
"{ 	c #E3E3E3",
"] 	c #D6D6D6",
"^ 	c #D7D7D7",
"/ 	c #A3B3C6",
"( 	c #3B7CC5",
"_ 	c #9BA7B6",
": 	c #6D91BA",
"< 	c #4D85C4",
"[ 	c #CECED0",
"} 	c #C2C2C2",
"| 	c #BCBCBC",
"1 	c #BBBBBB",
"2 	c #C3C3C3",
"3 	c #CACDD0",
"4 	c #4581C5",
"5 	c #819BB9",
"6 	c #3479C7",
"7 	c #CED0D3",
"8 	c #D5D5D5",
"9 	c #C1C1C1",
"0 	c #C8CCD2",
"a 	c #3278C7",
"b 	c #A0ABB9",
"c 	c #618ABA",
"d 	c #9DB3CC",
"e 	c #DADADA",
"f 	c #C6C6C6",
"g 	c #DBDBDB",
"h 	c #89A9CE",
"i 	c #8EA2B7",
"j 	c #3477C3",
"k 	c #D4D7DA",
"l 	c #D0D0D0",
"m 	c #CBCBCB",
"n 	c #D1D1D1",
"o 	c #CBD2DA",
"p 	c #859DB7",
"q 	c #2C75C7",
"r 	c #E0E0E0",
"s 	c #B8C3CF",
"t 	c #DEDFE0",
"u 	c #2B74C7",
"v 	c #829AB5",
"w 	c #3E80CA",
"x 	c #DCDCDC",
"y 	c #8AAACF",
"z 	c #D4D5D6",
"A 	c #DCDCDD",
"B 	c #3B7ECA",
"C 	c #839BB6",
"D 	c #869CB4",
"E 	c #DADCDE",
"F 	c #EBEBEB",
"G 	c #D7DADF",
"H 	c #93A3B4",
"I 	c #4A7DB6",
"J 	c #BFCBD8",
"K 	c #DFDFDF",
"L 	c #E1E1E1",
"M 	c #B4C5D9",
"N 	c #94A4B5",
"O 	c #D8D7D7",
"P 	c #6889AF",
"Q 	c #578FCD",
"R 	c #E6E6E6",
"S 	c #DBDDDF",
"T 	c #528CCD",
"U 	c #879AB0",
"V 	c #477AB3",
"W 	c #8DAED4",
"X 	c #E1E2E2",
"Y 	c #85A9D3",
"Z 	c #8699AF",
"` 	c #7891AD",
" .	c #3975BB",
"..	c #82A8D2",
"+.	c #D7DADD",
"@.	c #EEEEEE",
"#.	c #F0F0F0",
"$.	c #D5D9DE",
"%.	c #7FA6D2",
"&.	c #768FAA",
"*.	c #4C79AC",
"=.	c #4584CA",
"-.	c #9AB6D5",
";.	c #BDCAD8",
">.	c #BFCCDB",
",.	c #BDC9D8",
"'.	c #98B4D4",
").	c #4483CA",
"!.	c #8898AB",
"~.	c #6A86A6",
"{.	c #527AA8",
"].	c #4075B2",
"^.	c #3874B8",
"/.	c #939EAC",
"(.	c #8897A8",
"_.	c #8293A6",
". . . . . . . . . . . . . . . . . . . . ",
". . . . . . + @ # $ # % + . . . . . . . ",
". . . . & * = - ; > , - = * & . . . . . ",
". . . + ' ) ! ~ { ] { ^ / ( ' + . . . . ",
". . _ : < [ ^ } | 1 | 2 ~ 3 4 : _ . . . ",
". . 5 6 7 8 9 9 9 9 9 9 9 ] 0 a 5 . . . ",
". b c d e f f f f f f f f f g h c b . . ",
". i j k l m m m m m m m m m n o j i . . ",
". p q r n l l l l s l l l l n t u p . . ",
". v w x ] ] ] ] ] y z ] ] ] ] A B C . . ",
". D u E g g g g g F g g g g g G u D . . ",
". H I J K r r r r r r r r r L M I N . . ",
". O P Q t R R R R R R R R R S T P O . . ",
". . U V W r F F F F F F F X Y V Z . . . ",
". . . `  ...+.F @.#.@.F $.%. .` . . . . ",
". . . O &.*.=.-.;.>.,.'.).*.&.O . . . . ",
". . . . . !.~.{.].^.].{.~.!.. . . . . . ",
". . . . . . . /.(._.(./.. . . . . . . . ",
". . . . . . . . . . . . . . . . . . . . ",
". . . . . . . . . . . . . . . . . . . . ",
". . . . . . . . . . . . . . . . . . . . "};
