/* XPM */
static char * alldesktop_xpm[] = {
"20 21 71 1",
" 	c None",
".	c #E1DFDD",
"+	c #CDCCCC",
"@	c #DADADA",
"#	c #F3F3F3",
"$	c #F2F2F2",
"%	c #D9D9D9",
"&	c #E9E9E9",
"*	c #EFEFEF",
"=	c #EDEDED",
"-	c #ECECEC",
";	c #E8E8E8",
">	c #BEBDBC",
",	c #E2E2E2",
"'	c #EAEAEA",
")	c #E6E6E6",
"!	c #EBEBEB",
"~	c #E0E0E0",
"{	c #B5B4B3",
"]	c #E7E7E7",
"^	c #E1E1E1",
"/	c #9B9B9B",
"(	c #DEDEDE",
"_	c #DCDCDC",
":	c #919191",
"<	c #D7D7D7",
"[	c #BBBBBB",
"}	c #D8D8D8",
"|	c #949494",
"1	c #D1D1D1",
"2	c #7D7C7C",
"3	c #CFCFCF",
"4	c #939393",
"5	c #8A8A8A",
"6	c #D5D5D5",
"7	c #CDCDCD",
"8	c #CCCCCC",
"9	c #E4E4E4",
"0	c #8B8B8B",
"a	c #909090",
"b	c #BCBCBC",
"c	c #CBCBCB",
"d	c #C7C7C7",
"e	c #BDBDBD",
"f	c #9C9C9C",
"g	c #8C8C8C",
"h	c #CECECE",
"i	c #C1C1C1",
"j	c #898989",
"k	c #C8C8C8",
"l	c #CACACA",
"m	c #999999",
"n	c #7F7F7F",
"o	c #979797",
"p	c #C2C2C2",
"q	c #BEBEBE",
"r	c #B9B9B9",
"s	c #B7B7B7",
"t	c #BABABA",
"u	c #838383",
"v	c #7D7D7D",
"w	c #A4A4A4",
"x	c #B5B5B5",
"y	c #A2A2A2",
"z	c #7B7B7B",
"A	c #D8D7D5",
"B	c #929292",
"C	c #828282",
"D	c #7A7A7A",
"E	c #767676",
"F	c #C7C6C5",
"....................",
"....................",
".........+..........",
"......@####$%.......",
".....&*=---=*;......",
"...>,')))))))!~{....",
"....]^^^^^^^^^].....",
"../@(_________(%/...",
"..:^<<<<<[<<<<}^:...",
"..|@11111231111%4...",
"..567888898888760...",
"..abcddddddddd8ea...",
"..fghiiiiiiiiih5f...",
"...j/kbbbbbbblmj....",
"...{nopqrstqp4n{....",
"....fuvwtxryzuf.....",
".....ABCDEDCBA......",
"........F{F.........",
"....................",
"....................",
"...................."};
