/* XPM */
static char * alldesktopunfocus_xpm[] = {
"20 21 70 1",
" 	c None",
".	c #E1DFDD",
"+	c #CDCCCC",
"@	c #DADADA",
"#	c #F3F3F3",
"$	c #F2F2F2",
"%	c #D9D9D9",
"&	c #E9E9E9",
"*	c #EFEFEF",
"=	c #EDEDED",
"-	c #ECECEC",
";	c #E8E8E8",
">	c #BEBDBC",
",	c #E2E2E2",
"'	c #EAEAEA",
")	c #E6E6E6",
"!	c #EBEBEB",
"~	c #E0E0E0",
"{	c #B5B4B3",
"]	c #E7E7E7",
"^	c #E1E1E1",
"/	c #9B9B9B",
"(	c #DEDEDE",
"_	c #DCDCDC",
":	c #919191",
"<	c #D7D7D7",
"[	c #CBCBCB",
"}	c #D8D8D8",
"|	c #949494",
"1	c #D1D1D1",
"2	c #AEAEAE",
"3	c #D0D0D0",
"4	c #939393",
"5	c #8A8A8A",
"6	c #D5D5D5",
"7	c #CDCDCD",
"8	c #CCCCCC",
"9	c #E4E4E4",
"0	c #8B8B8B",
"a	c #909090",
"b	c #BCBCBC",
"c	c #C7C7C7",
"d	c #BDBDBD",
"e	c #9C9C9C",
"f	c #8C8C8C",
"g	c #CECECE",
"h	c #C1C1C1",
"i	c #898989",
"j	c #C8C8C8",
"k	c #CACACA",
"l	c #999999",
"m	c #7F7F7F",
"n	c #979797",
"o	c #C2C2C2",
"p	c #BEBEBE",
"q	c #B9B9B9",
"r	c #B7B7B7",
"s	c #BABABA",
"t	c #838383",
"u	c #7D7D7D",
"v	c #A4A4A4",
"w	c #B5B5B5",
"x	c #A2A2A2",
"y	c #7B7B7B",
"z	c #D8D7D5",
"A	c #929292",
"B	c #828282",
"C	c #7A7A7A",
"D	c #767676",
"E	c #C7C6C5",
"....................",
"....................",
".........+..........",
"......@####$%.......",
".....&*=---=*;......",
"...>,')))))))!~{....",
"....]^^^^^^^^^].....",
"../@(_________(%/...",
"..:^<<<<<[<<<<}^:...",
"..|@11111231111%4...",
"..567888898888760...",
"..ab[ccccccccc8da...",
"..efghhhhhhhhhg5e...",
"...i/jbbbbbbbkli....",
"...{mnopqrspo4m{....",
"....etuvswqxyte.....",
".....zABCDCBAz......",
"........E{E.........",
"....................",
"....................",
"...................."};
