/* XPM */
static char * alldesktopprunfocus_xpm[] = {
"20 21 62 1",
" 	c None",
".	c #E1DFDD",
"+	c #D8D8D8",
"@	c #E3E3E3",
"#	c #D6D6D6",
"$	c #D7D7D7",
"%	c #BEBDBC",
"&	c #CDCDCD",
"*	c #C2C2C2",
"=	c #BCBCBC",
"-	c #BBBBBB",
";	c #C3C3C3",
">	c #CCCCCC",
",	c #ABABAA",
"'	c #CECECE",
")	c #D5D5D5",
"!	c #C1C1C1",
"~	c #A1A1A1",
"{	c #DADADA",
"]	c #C6C6C6",
"^	c #DBDBDB",
"/	c #9B9B9B",
"(	c #D4D4D4",
"_	c #D0D0D0",
":	c #CBCBCB",
"<	c #D1D1D1",
"[	c #D2D2D2",
"}	c #919191",
"|	c #DFDFDF",
"1	c #C5C5C5",
"2	c #949494",
"3	c #DCDCDC",
"4	c #B1B1B1",
"5	c #939393",
"6	c #8A8A8A",
"7	c #EBEBEB",
"8	c #D9D9D9",
"9	c #909090",
"0	c #E0E0E0",
"a	c #E1E1E1",
"b	c #9C9C9C",
"c	c #8F8F8F",
"d	c #DDDDDD",
"e	c #E6E6E6",
"f	c #8C8C8C",
"g	c #898989",
"h	c #A5A5A5",
"i	c #A2A2A2",
"j	c #B5B4B3",
"k	c #7F7F7F",
"l	c #A0A0A0",
"m	c #EEEEEE",
"n	c #F0F0F0",
"o	c #838383",
"p	c #7D7D7D",
"q	c #ADADAD",
"r	c #C7C7C7",
"s	c #ABABAB",
"t	c #7C7C7C",
"u	c #7A7A7A",
"v	c #767676",
"w	c #C7C6C5",
"....................",
"....................",
"....................",
".......+@#@$........",
"....%&$*=-=;+>%.....",
"...,')!!!!!!!#&~....",
"....{]]]]]]]]]^.....",
"../(_:::::::::<[/...",
"..}|<____1____<|}...",
"..23#####4)####35...",
"..6{^^^^^7^^^^^86...",
"..9;|000000000a;9...",
"..bcdeeeeeeeee3fb...",
"...gh07777777aig....",
"...jkl#7mnm7#bkj....",
"....bopq]r1stob.....",
"......5ouvuo5.......",
"........wjw.........",
"....................",
"....................",
"...................."};
