/* XPM */
static char * alldownunfocus_xpm[] = {
"20 21 88 1",
" 	c None",
".	c #E1DFDD",
"+	c #DDDDDD",
"@	c #F3F3F3",
"#	c #F2F2F2",
"$	c #DBDBDB",
"%	c #EAEAEA",
"&	c #EFEFEF",
"*	c #EDEDED",
"=	c #ECECEC",
"-	c #E8E8E8",
";	c #C4C3C2",
">	c #E3E3E3",
",	c #C5C5C5",
"'	c #D6D6D6",
")	c #E6E6E6",
"!	c #D9D9D8",
"~	c #C2C2C2",
"{	c #EBEBEB",
"]	c #E0E0E0",
"^	c #ABABAB",
"/	c #E7E7E7",
"(	c #E1E1E1",
"_	c #BABABA",
":	c #8C8C8B",
"<	c #D0D0D0",
"[	c #D4D4D3",
"}	c #8F8F8E",
"|	c #B5B5B5",
"1	c #A4A4A4",
"2	c #DEDEDE",
"3	c #DCDCDC",
"4	c #BEBEBE",
"5	c #8B8B8A",
"6	c #C2C2C1",
"7	c #8E8E8D",
"8	c #B6B6B5",
"9	c #EEEEEE",
"0	c #D9D9D9",
"a	c #9A9A9A",
"b	c #D7D7D7",
"c	c #858585",
"d	c #F0F0F0",
"e	c #D8D8D8",
"f	c #989898",
"g	c #9C9C9C",
"h	c #DADADA",
"i	c #D1D1D1",
"j	c #A5A5A5",
"k	c #B1B1B1",
"l	c #D3D3D3",
"m	c #A0A09F",
"n	c #999999",
"o	c #939393",
"p	c #D5D5D5",
"q	c #CDCDCD",
"r	c #CCCCCC",
"s	c #CBCBCB",
"t	c #AEAEAE",
"u	c #B2B2B1",
"v	c #898988",
"w	c #C9C9C9",
"x	c #919191",
"y	c #BDBDBD",
"z	c #C7C7C7",
"A	c #9C9C9B",
"B	c #909090",
"C	c #CECECE",
"D	c #C1C1C1",
"E	c #888888",
"F	c #8E8E8E",
"G	c #C8C8C8",
"H	c #BCBCBC",
"I	c #F5F5F5",
"J	c #CACACA",
"K	c #9B9B9B",
"L	c #8F8F8F",
"M	c #B4B3B3",
"N	c #B9B9B9",
"O	c #959595",
"P	c #818181",
"Q	c #A3A3A3",
"R	c #7F7F7F",
"S	c #D3D1D0",
"T	c #7E7E7E",
"U	c #7B7B7B",
"V	c #BCBBBB",
"W	c #A7A7A7",
"....................",
"....................",
"....................",
"......+@@@@#$.......",
".....%&*===*&-......",
"...;>%,')))!~{]^....",
"..../(_:<([}|(/.....",
"..1$23=4567893201...",
"..a(bb0&4c8d0be(f...",
"..ghiijk*l&|mii0n...",
"..opqrs5t{uvwrqpx...",
"..nysz$]5Av$2zr4f...",
"..jBCDD0]E03DDCFj...",
"...BgGHH'I0HHJKL....",
"...Mcf~4NG_4~Oc^....",
"....jEPj_|NQRE1.....",
".....SKETUTEnS......",
"........VWM.........",
"....................",
"....................",
"...................."};
