/* XPM */
static char * allupunfocus_xpm[] = {
"20 21 95 2",
"  	c None",
". 	c #E1DFDD",
"+ 	c #DDDDDD",
"@ 	c #F3F3F3",
"# 	c #F2F2F2",
"$ 	c #DBDBDB",
"% 	c #EAEAEA",
"& 	c #EFEFEF",
"* 	c #EDEDED",
"= 	c #ECECEC",
"- 	c #E8E8E8",
"; 	c #C5C4C3",
"> 	c #E3E3E3",
", 	c #E6E6E6",
"' 	c #A1A1A1",
") 	c #E0E0E0",
"! 	c #EBEBEB",
"~ 	c #E1E1E1",
"{ 	c #B5B5B5",
"] 	c #E7E7E7",
"^ 	c #9E9E9E",
"/ 	c #8D8D8C",
"( 	c #999999",
"_ 	c #DCDCDC",
": 	c #A7A7A7",
"< 	c #DEDEDE",
"[ 	c #D8D8D8",
"} 	c #9C9C9B",
"| 	c #9E9E9D",
"1 	c #EEEEEE",
"2 	c #A3A3A2",
"3 	c #989897",
"4 	c #D7D7D7",
"5 	c #D9D9D9",
"6 	c #A6A6A6",
"7 	c #9B9B9B",
"8 	c #A5A5A4",
"9 	c #9D9D9C",
"0 	c #F0F0F0",
"a 	c #A2A2A1",
"b 	c #9F9F9E",
"c 	c #9A9A9A",
"d 	c #9D9D9D",
"e 	c #DADADA",
"f 	c #D1D1D1",
"g 	c #D4D4D4",
"h 	c #C9C9C9",
"i 	c #878786",
"j 	c #C4C4C4",
"k 	c #F1F1F1",
"l 	c #D5D5D5",
"m 	c #949494",
"n 	c #CDCDCD",
"o 	c #CCCCCC",
"p 	c #C6C6C6",
"q 	c #8A8A89",
"r 	c #AAAAAA",
"s 	c #C1C1C1",
"t 	c #939393",
"u 	c #BDBDBD",
"v 	c #CBCBCB",
"w 	c #C7C7C7",
"x 	c #BABABA",
"y 	c #BFBFBF",
"z 	c #898988",
"A 	c #B7B7B7",
"B 	c #BEBEBE",
"C 	c #919191",
"D 	c #CECECE",
"E 	c #A0A09F",
"F 	c #BFBFBE",
"G 	c #C6C6C5",
"H 	c #8F8F8F",
"I 	c #929292",
"J 	c #C8C8C8",
"K 	c #DFDFDF",
"L 	c #BCBCBC",
"M 	c #E5E5E5",
"N 	c #CACACA",
"O 	c #A9A9A9",
"P 	c #868686",
"Q 	c #C0C0C0",
"R 	c #B9B9B9",
"S 	c #959595",
"T 	c #8A8A8A",
"U 	c #818181",
"V 	c #A5A5A5",
"W 	c #A3A3A3",
"X 	c #7F7F7F",
"Y 	c #D3D2D0",
"Z 	c #9C9C9C",
"` 	c #808080",
" .	c #7C7C7C",
"..	c #898989",
"+.	c #BDBDBC",
". . . . . . . . . . . . . . . . . . . . ",
". . . . . . . . . . . . . . . . . . . . ",
". . . . . . . . . . . . . . . . . . . . ",
". . . . . . + @ @ @ @ # $ . . . . . . . ",
". . . . . % & * = = = * & - . . . . . . ",
". . . ; > % , , > ' ) , , ! ~ { . . . . ",
". . . . ] ~ ~ + ^ / ( _ ~ ~ ] . . . . . ",
". . : $ < _ [ } | 1 2 3 4 _ < 5 6 . . . ",
". . 7 ~ 4 4 8 9 & ~ 0 a b 4 [ ~ c . . . ",
". . d e f f g 0 h i j k l f f 5 7 . . . ",
". . m l n o + p q r q s + o n l t . . . ",
". . 7 u v w x q y # p z A w o B ( . . . ",
". . : C D s E F - j , G 9 s D H 6 . . . ",
". . . I d J K ] y L B M > N 7 C . . . . ",
". . . O P ( h Q R A x y N S P O . . . . ",
". . . . 6 T U V x { R W X T : . . . . . ",
". . . . . Y Z T `  .X ..Z Y . . . . . . ",
". . . . . . . . +.O { . . . . . . . . . ",
". . . . . . . . . . . . . . . . . . . . ",
". . . . . . . . . . . . . . . . . . . . ",
". . . . . . . . . . . . . . . . . . . . "};
