/* XPM */
static char * allup_xpm[] = {
"20 21 105 2",
"  	c None",
". 	c #E1DFDD",
"+ 	c #DBDAD9",
"@ 	c #DDDDDD",
"# 	c #F3F3F3",
"$ 	c #F2F2F2",
"% 	c #DBDBDB",
"& 	c #EAEAEA",
"* 	c #EFEFEF",
"= 	c #EDEDED",
"- 	c #ECECEC",
"; 	c #E8E8E8",
"> 	c #DAD8D6",
", 	c #E3E3E3",
"' 	c #E6E6E6",
") 	c #E0E0E0",
"! 	c #555453",
"~ 	c #D8D8D8",
"{ 	c #EBEBEB",
"] 	c #E1E1E1",
"^ 	c #CBCAC9",
"/ 	c #E7E7E7",
"( 	c #D9D9D9",
"_ 	c #4D4D4C",
": 	c #262524",
"< 	c #434342",
"[ 	c #D6D6D6",
"} 	c #AAAAAA",
"| 	c #DEDEDE",
"1 	c #DCDCDC",
"2 	c #D4D4D4",
"3 	c #4A4948",
"4 	c #4B4A49",
"5 	c #414140",
"6 	c #D0D0D0",
"7 	c #A6A6A6",
"8 	c #9B9B9B",
"9 	c #D7D7D7",
"0 	c #616060",
"a 	c #545352",
"b 	c #535352",
"c 	c #9A9A9A",
"d 	c #9D9D9D",
"e 	c #DADADA",
"f 	c #D1D1D1",
"g 	c #C6C6C6",
"h 	c #B5B4B4",
"i 	c #1D1B1A",
"j 	c #A9A9A9",
"k 	c #EEEEEE",
"l 	c #C7C6C6",
"m 	c #949494",
"n 	c #D5D5D5",
"o 	c #CDCDCD",
"p 	c #CCCCCC",
"q 	c #B1B1B0",
"r 	c #232222",
"s 	c #646463",
"t 	c #222120",
"u 	c #A8A7A7",
"v 	c #939393",
"w 	c #BDBDBD",
"x 	c #CBCBCB",
"y 	c #C7C7C7",
"z 	c #A5A5A4",
"A 	c #222221",
"B 	c #919190",
"C 	c #9E9E9D",
"D 	c #201F1E",
"E 	c #9D9C9C",
"F 	c #BEBEBE",
"G 	c #999999",
"H 	c #919191",
"I 	c #CECECE",
"J 	c #C1C1C1",
"K 	c #626261",
"L 	c #C4C4C4",
"M 	c #585857",
"N 	c #8F8F8F",
"O 	c #929292",
"P 	c #C8C8C8",
"Q 	c #DFDFDF",
"R 	c #BFBFBF",
"S 	c #BCBCBC",
"T 	c #E5E5E5",
"U 	c #CACACA",
"V 	c #BBBBBA",
"W 	c #868686",
"X 	c #C9C9C9",
"Y 	c #C0C0C0",
"Z 	c #B9B9B9",
"` 	c #B7B7B7",
" .	c #BABABA",
"..	c #959595",
"+.	c #8A8A8A",
"@.	c #818181",
"#.	c #A5A5A5",
"$.	c #B5B5B5",
"%.	c #A3A3A3",
"&.	c #7F7F7F",
"*.	c #9C9C9C",
"=.	c #808080",
"-.	c #7C7C7C",
";.	c #898989",
">.	c #D2D1CF",
". . . . . . . . . . . . . . . . . . . . ",
". . . . . . . . . . . . . . . . . . . . ",
". . . . . . . . . + . . . . . . . . . . ",
". . . . . . @ # # # # $ % . . . . . . . ",
". . . . . & * = - - - = * ; . . . . . . ",
". . . > , & ' ' ) ! ~ ' ' { ] ^ . . . . ",
". . . . / ] ] ( _ : < [ ] ] / . . . . . ",
". . } % | 1 2 3 4 / ! 5 6 1 | ( 7 . . . ",
". . 8 ] 9 9 0 3 { ] = a b 9 ~ ] c . . . ",
". . d e f f g = h i j k l f f ( 8 . . . ",
". . m n o p @ q r s t u @ p o n v . . . ",
". . 8 w x y z A B $ C D E y p F G . . . ",
". . } H I J K B ; L ' C M J I N 7 . . . ",
". . . O d P Q / R S F T , U 8 H . . . . ",
". . . V W G X Y Z `  .R U ..W V . . . . ",
". . . . 7 +.@.#. .$.Z %.&.+.} . . . . . ",
". . . . . . *.+.=.-.&.;.*.. . . . . . . ",
". . . . . . . . >.V ^ . . . . . . . . . ",
". . . . . . . . . . . . . . . . . . . . ",
". . . . . . . . . . . . . . . . . . . . ",
". . . . . . . . . . . . . . . . . . . . "};
