/* XPM */
static char * close_xpm[] = {
"20 21 114 2",
"  	c None",
". 	c #E1DFDD",
"+ 	c #DEDCDA",
"@ 	c #CFCDCC",
"# 	c #D2D0CF",
"$ 	c #C9C9C9",
"% 	c #D2D1CF",
"& 	c #D7D5D3",
"* 	c #DAD9D7",
"= 	c #D2D2D1",
"- 	c #D7D6D6",
"; 	c #E9E9E8",
"> 	c #F3F3F3",
", 	c #EDEDED",
"' 	c #EEEDED",
") 	c #CFCFCE",
"! 	c #D4D3D1",
"~ 	c #DBD9D7",
"{ 	c #CFCECD",
"] 	c #E7E7E7",
"^ 	c #EFEFEF",
"/ 	c #ECECEC",
"( 	c #EAEAEA",
"_ 	c #E4E4E4",
": 	c #DDDBD9",
"< 	c #E0DEDC",
"[ 	c #C0BFBE",
"} 	c #C9C9C8",
"| 	c #E1E1E0",
"1 	c #E6E6E6",
"2 	c #EBEBEB",
"3 	c #CDCCCC",
"4 	c #BDBCBB",
"5 	c #DBD9D8",
"6 	c #C8C7C6",
"7 	c #E1E1E1",
"8 	c #5F5E5D",
"9 	c #626261",
"0 	c #DEDEDE",
"a 	c #E0E0E0",
"b 	c #6F6F6E",
"c 	c #525151",
"d 	c #D8D6D4",
"e 	c #D8D7D5",
"f 	c #A9A7A7",
"g 	c #D7D7D7",
"h 	c #DCDCDC",
"i 	c #D7D7D6",
"j 	c #383837",
"k 	c #60605F",
"l 	c #D8D8D8",
"m 	c #6A6A69",
"n 	c #31302F",
"o 	c #D1D1D1",
"p 	c #D9D9D9",
"q 	c #A6A6A5",
"r 	c #919191",
"s 	c #E2E2E1",
"t 	c #333231",
"u 	c #302F2E",
"v 	c #DBDBDB",
"w 	c #E2E2E2",
"x 	c #949494",
"y 	c #DADADA",
"z 	c #6C6B69",
"A 	c #191817",
"B 	c #5D5C5B",
"C 	c #939393",
"D 	c #8B8B8B",
"E 	c #D5D5D5",
"F 	c #CDCDCD",
"G 	c #CCCCCC",
"H 	c #CBCBCB",
"I 	c #616060",
"J 	c #CCCCCB",
"K 	c #575655",
"L 	c #CACACA",
"M 	c #8A8A8A",
"N 	c #909090",
"O 	c #BCBCBC",
"P 	c #C7C7C7",
"Q 	c #6B6B6A",
"R 	c #2F2E2D",
"S 	c #363635",
"T 	c #605F5E",
"U 	c #BDBDBD",
"V 	c #A0A0A0",
"W 	c #8C8C8C",
"X 	c #CECECE",
"Y 	c #C1C1C1",
"Z 	c #A2A2A1",
"` 	c #D4D4D4",
" .	c #9E9E9E",
"..	c #898989",
"+.	c #9B9B9B",
"@.	c #C8C8C8",
"#.	c #999999",
"$.	c #7F7F7F",
"%.	c #979797",
"&.	c #C2C2C2",
"*.	c #BEBEBE",
"=.	c #B9B9B9",
"-.	c #B7B7B7",
";.	c #BABABA",
">.	c #838383",
",.	c #7D7D7D",
"'.	c #A4A4A4",
").	c #B5B5B5",
"!.	c #A2A2A2",
"~.	c #7B7B7B",
"{.	c #929292",
"].	c #828282",
"^.	c #7A7A7A",
"/.	c #767676",
". . . . . . . . . . . . . . . . . . . . ",
". . . . . . . . . . . . . . . . . . . . ",
". . . . . . + @ # $ % & . . . . . . . . ",
". . . . * * = - ; > , ' ) ! . . . . . . ",
". . . ~ { ] ^ , / / / , ( _ # : . . . . ",
". . < [ } ( | 1 1 1 1 1 | 2 3 4 < . . . ",
". . 5 6 1 7 8 9 0 7 a b c 7 ] d e . . . ",
". . f g 0 h i j k l m n o h 0 p q + . . ",
". . r 7 g g a s j t u v w g l 7 r . . . ",
". . x y o o o v z A B v o o o p C . . . ",
". . D E F G H I n J j K L G F E M . . . ",
". . N O H P Q R y 7 | S T P G U N . . . ",
". . V W X Y Z h ` Y o w  .Y X M V . . . ",
". . . ..+.@.p o O O O F h L #.... . . . ",
". . . 4 $.%.&.*.=.-.;.*.&.C $.4 . . . . ",
". . . . V >.,.'.;.).=.!.~.>.V . . . . . ",
". . . . . . {.].^./.^.].{.. . . . . . . ",
". . . . . . . . { 4 { . . . . . . . . . ",
". . . . . . . . . . . . . . . . . . . . ",
". . . . . . . . . . . . . . . . . . . . ",
". . . . . . . . . . . . . . . . . . . . "};
