/* XPM */
static char * closeunfocus_xpm[] = {
"20 21 87 1",
" 	c None",
".	c #E1DFDD",
"+	c #CDCCCC",
"@	c #DADADA",
"#	c #F3F3F3",
"$	c #F2F2F2",
"%	c #D9D9D9",
"&	c #E9E9E9",
"*	c #EFEFEF",
"=	c #EDEDED",
"-	c #ECECEC",
";	c #E8E8E8",
">	c #BEBDBC",
",	c #E2E2E2",
"'	c #EAEAEA",
")	c #E4E4E4",
"!	c #E6E6E6",
"~	c #EBEBEB",
"{	c #E0E0E0",
"]	c #B5B4B3",
"^	c #E7E7E7",
"/	c #E1E1E1",
"(	c #A6A6A5",
"_	c #A7A7A7",
":	c #AEAEAD",
"<	c #A0A09F",
"[	c #9B9B9B",
"}	c #DEDEDE",
"|	c #DCDCDC",
"1	c #959594",
"2	c #DBDBDB",
"3	c #AAAAA9",
"4	c #919191",
"5	c #DDDDDD",
"6	c #D7D7D7",
"7	c #929290",
"8	c #909090",
"9	c #D8D8D8",
"0	c #949494",
"a	c #D1D1D1",
"b	c #B0B0B0",
"c	c #868686",
"d	c #A8A8A7",
"e	c #939393",
"f	c #8B8B8B",
"g	c #D5D5D5",
"h	c #CDCDCD",
"i	c #CCCCCC",
"j	c #A2A2A2",
"k	c #9E9E9D",
"l	c #8A8A8A",
"m	c #BCBCBC",
"n	c #CBCBCB",
"o	c #C7C7C7",
"p	c #A5A5A4",
"q	c #8F8F8F",
"r	c #939392",
"s	c #A0A0A0",
"t	c #BDBDBD",
"u	c #9C9C9C",
"v	c #8C8C8C",
"w	c #CECECE",
"x	c #C1C1C1",
"y	c #BDBDBC",
"z	c #D4D4D4",
"A	c #898989",
"B	c #C8C8C8",
"C	c #CACACA",
"D	c #999999",
"E	c #7F7F7F",
"F	c #979797",
"G	c #C2C2C2",
"H	c #BEBEBE",
"I	c #B9B9B9",
"J	c #B7B7B7",
"K	c #BABABA",
"L	c #838383",
"M	c #7D7D7D",
"N	c #A4A4A4",
"O	c #B5B5B5",
"P	c #7B7B7B",
"Q	c #D8D7D5",
"R	c #929292",
"S	c #828282",
"T	c #7A7A7A",
"U	c #767676",
"V	c #C7C6C5",
"....................",
"....................",
"..........+.........",
".......@####$%......",
"......&*=---=*;.....",
"....>,')!!!!!)~{]...",
".....^/(_{//:</^....",
"...[@}|{1(2345|}%[..",
"...4/66{~178^,69/4..",
"...0@aaa|bcd5aaa%e..",
"...fghiij4{1kiihgl..",
"...8mnopq!/'rsoit8..",
"...uvwxy^zxa~mxwlu..",
"....A[B%ammmh|CDA...",
"....]EFGHIJKHGeE]...",
".....uLMNKOIjPLu....",
"......QRSTUTSRQ.....",
".........V]V........",
"....................",
"....................",
"...................."};
