/* XPM */
static char * closepressed_xpm[] = {
"20 21 160 2",
"  	c None",
". 	c #E1DFDD",
"+ 	c #DBD7D5",
"@ 	c #B68D8D",
"# 	c #B77878",
"$ 	c #B76969",
"% 	c #B86363",
"& 	c #B67777",
"* 	c #D5CECD",
"= 	c #B69191",
"- 	c #B76C6C",
"; 	c #B93A3A",
"> 	c #BD1616",
", 	c #BA3F3F",
"' 	c #C06666",
") 	c #BA3E3E",
"! 	c #B75757",
"~ 	c #BE1A1A",
"{ 	c #C5A9A9",
"] 	c #D8D8D8",
"^ 	c #E3E3E3",
"/ 	c #D6D6D6",
"( 	c #D7D7D7",
"_ 	c #C59A9A",
": 	c #BE1818",
"< 	c #B59494",
"[ 	c #B65959",
"} 	c #BE2E2E",
"| 	c #D0CDCD",
"1 	c #C2C2C2",
"2 	c #BCBCBC",
"3 	c #BBBBBB",
"4 	c #C3C3C3",
"5 	c #CFC9C9",
"6 	c #BF2424",
"7 	c #B67373",
"8 	c #C00E0E",
"9 	c #D2CDCD",
"0 	c #D5D5D5",
"a 	c #C1BCBC",
"b 	c #C1C1C1",
"c 	c #D1C5C5",
"d 	c #BF0C0C",
"e 	c #B59595",
"f 	c #B54B4B",
"g 	c #CA9090",
"h 	c #DADADA",
"i 	c #C6C6C6",
"j 	c #C14A4A",
"k 	c #C24E4E",
"l 	c #C6C4C4",
"m 	c #C6C5C5",
"n 	c #C25A5A",
"o 	c #C13E3E",
"p 	c #DBDBDB",
"q 	c #CA7878",
"r 	c #B58585",
"s 	c #BB0F0F",
"t 	c #DAD2D2",
"u 	c #D0D0D0",
"v 	c #CBCBCB",
"w 	c #DDCDCD",
"x 	c #C32828",
"y 	c #C34F4F",
"z 	c #CBC8C8",
"A 	c #C55A5A",
"B 	c #C22121",
"C 	c #DCC7C7",
"D 	c #D1D1D1",
"E 	c #D9C8C8",
"F 	c #B47979",
"G 	c #BF0404",
"H 	c #E0E0E0",
"I 	c #F0E0E0",
"J 	c #C42929",
"K 	c #C12424",
"L 	c #C32121",
"M 	c #EED9D9",
"N 	c #DDDDDD",
"O 	c #E0DEDE",
"P 	c #BF0303",
"Q 	c #B37676",
"R 	c #C31A1A",
"S 	c #DCDCDC",
"T 	c #E0DFDF",
"U 	c #D46161",
"V 	c #C00909",
"W 	c #D05151",
"X 	c #E1DFDF",
"Y 	c #DDDBDB",
"Z 	c #C31717",
"` 	c #B27575",
" .	c #B17B7B",
"..	c #DDD9D9",
"+.	c #DBDADA",
"@.	c #CB5D5D",
"#.	c #C52424",
"$.	c #ECC8C8",
"%.	c #C62B2B",
"&.	c #C95252",
"*.	c #DAD8D8",
"=.	c #DED5D5",
"-.	c #B48C8C",
";.	c #B12F2F",
">.	c #D7B8B8",
",.	c #DFDFDF",
"'.	c #CF6F6F",
").	c #C42323",
"!.	c #ECECEC",
"~.	c #F1E1E1",
"{.	c #CD6161",
"].	c #E1E1E1",
"^.	c #D7AAAA",
"/.	c #B38B8B",
"(.	c #B5A1A1",
"_.	c #AC5656",
":.	c #C73939",
"<.	c #E6E6E6",
"[.	c #E0B3B3",
"}.	c #EFDCDC",
"|.	c #EBEBEB",
"1.	c #F1E3E3",
"2.	c #DFADAD",
"3.	c #DFDBDB",
"4.	c #C73434",
"5.	c #AC7D7D",
"6.	c #AE2C2C",
"7.	c #D07A7A",
"8.	c #F0F0F0",
"9.	c #EFEFEF",
"0.	c #EEEEEE",
"a.	c #F1F1F1",
"b.	c #E2E1E1",
"c.	c #CF7171",
"d.	c #AD7E7E",
"e.	c #DAD7D5",
"f.	c #AA6B6B",
"g.	c #B41717",
"h.	c #CE6D6D",
"i.	c #DDD5D5",
"j.	c #DDD2D2",
"k.	c #CE6969",
"l.	c #BAABAA",
"m.	c #A76A6A",
"n.	c #A83434",
"o.	c #C32424",
"p.	c #D28B8B",
"q.	c #D6B7B7",
"r.	c #D9B8B8",
"s.	c #D6B6B6",
"t.	c #D18989",
"u.	c #C32222",
"v.	c #A98080",
"w.	c #A35A5A",
"x.	c #A43C3C",
"y.	c #AC2323",
"z.	c #B21717",
"A.	c #AA8D8D",
"B.	c #A78080",
"C.	c #A57A7A",
". . . . . . . . . . . . . . . . . . . . ",
". . . . . . + @ # $ % $ & @ * . . . . . ",
". . . . . = - ; > , ' ) > ; - = . . . . ",
". . . . @ ! ~ { ] ^ / ^ ( _ : ! @ . . . ",
". . . < [ } | ( 1 2 3 2 4 ] 5 6 [ < . . ",
". . . 7 8 9 0 a b b b b b a / c d 7 . . ",
". . e f g h i j k l i m n o i p q f e . ",
". . r s t u v w x y z A B C v D E s r . ",
". . F G H D u p I J K L M N u D O P F . ",
". . Q R S / / / T U V W X / / / Y Z ` . ",
". .  .P ..p p +.@.#.$.%.&.*.p p =.P  .. ",
". . -.;.>.,.H '.).M !.~.%.{.H ].^.;./.. ",
". . (._.:.O <.[.}.!.<.|.1.2.<.3.4._.(.. ",
". . . 5.6.7.H 8.9.|.|.|.0.a.b.c.6.d.. . ",
". . . e.f.g.h.i.|.0.8.0.|.j.k.g.f.e.. . ",
". . . . l.m.n.o.p.q.r.s.t.u.n.m.l.. . . ",
". . . . . . v.w.x.y.z.y.x.w.v.. . . . . ",
". . . . . . . e.A.B.C.B.A.e.. . . . . . ",
". . . . . . . . . . . . . . . . . . . . ",
". . . . . . . . . . . . . . . . . . . . ",
". . . . . . . . . . . . . . . . . . . . "};
