/* XPM */
static char * help_xpm[] = {
"20 21 88 1",
" 	c None",
".	c #E1DFDD",
"+	c #D2D1D1",
"@	c #DCDCDC",
"#	c #F3F3F3",
"$	c #F2F2F2",
"%	c #DADADA",
"&	c #E9E9E9",
"*	c #EFEFEF",
"=	c #EDEDED",
"-	c #ECECEC",
";	c #E8E8E8",
">	c #D1CFCE",
",	c #E3E3E3",
"'	c #EAEAEA",
")	c #E6E6E6",
"!	c #D6D6D6",
"~	c #696868",
"{	c #252424",
"]	c #6B6A6A",
"^	c #D6D5D5",
"/	c #EBEBEB",
"(	c #E0E0E0",
"_	c #C0BFBE",
":	c #E7E7E7",
"<	c #E1E1E1",
"[	c #C9C9C9",
"}	c #828181",
"|	c #CBCBCB",
"1	c #636362",
"2	c #717070",
"3	c #A5A5A5",
"4	c #DBDBDB",
"5	c #DEDEDE",
"6	c #B0B0AF",
"7	c #41403F",
"8	c #D9D9D9",
"9	c #9F9F9F",
"0	c #969696",
"a	c #D7D7D7",
"b	c #9F9E9E",
"c	c #454544",
"d	c #949493",
"e	c #D8D8D8",
"f	c #959595",
"g	c #989898",
"h	c #D1D1D1",
"i	c #40403F",
"j	c #9C9C9C",
"k	c #E2E2E2",
"l	c #979797",
"m	c #8F8F8F",
"n	c #D5D5D5",
"o	c #CDCDCD",
"p	c #CCCCCC",
"q	c #9C9C9B",
"r	c #E5E5E5",
"s	c #8E8E8E",
"t	c #BDBDBD",
"u	c #C7C7C7",
"v	c #C8C8C8",
"w	c #949494",
"x	c #CECECE",
"y	c #C1C1C1",
"z	c #A2A2A2",
"A	c #8C8C8C",
"B	c #8D8D8D",
"C	c #BCBCBC",
"D	c #CACACA",
"E	c #9A9A9A",
"F	c #838383",
"G	c #C2C2C2",
"H	c #BEBEBE",
"I	c #B9B9B9",
"J	c #B7B7B7",
"K	c #BABABA",
"L	c #828282",
"M	c #B7B7B6",
"N	c #868686",
"O	c #7F7F7F",
"P	c #B5B5B5",
"Q	c #A3A3A3",
"R	c #7D7D7D",
"S	c #A0A0A0",
"T	c #7C7C7C",
"U	c #787878",
"V	c #858585",
"W	c #C9C7C6",
"....................",
"....................",
".........+..........",
"......@####$%.......",
".....&*=---=*;......",
"...>,')!~{]^)/(_....",
"....:<<[}|12<<:.....",
"..345@@<$'67@@589...",
"..0<aaaaabcdaae<f...",
"..g%hhhhhijkhhh8l...",
"..mnoppppqrhppons...",
"..ft|uuuudvuuuptw...",
"..3sxyyyyzyyyyxA3...",
"...BjvCCC8tCCDEA....",
"..._FgGHIJKHGwLM....",
"....3NO3KPIQRNS.....",
"......lNTUTV0.......",
"........WMW.........",
"....................",
"....................",
"...................."};
