/* XPM */
static char * helpunfocus_xpm[] = {
"20 21 88 1",
" 	c None",
".	c #E1DFDD",
"+	c #DBD9D8",
"@	c #DCDCDC",
"#	c #F3F3F3",
"$	c #F2F2F2",
"%	c #DADADA",
"&	c #E9E9E9",
"*	c #EFEFEF",
"=	c #EDEDED",
"-	c #ECECEC",
";	c #E8E8E8",
">	c #B9B9B8",
",	c #E3E3E3",
"'	c #EAEAEA",
")	c #E6E6E6",
"!	c #DFDFDF",
"~	c #ACACAB",
"{	c #8C8C8B",
"]	c #ADADAC",
"^	c #DEDEDE",
"/	c #EBEBEB",
"(	c #E0E0E0",
"_	c #A8A7A7",
":	c #E7E7E7",
"<	c #E1E1E1",
"[	c #D6D6D6",
"}	c #B7B7B7",
"|	c #DDDDDD",
"1	c #A9A9A8",
"2	c #AEAEAD",
"3	c #A1A1A1",
"4	c #DBDBDB",
"5	c #D1D1D1",
"6	c #999998",
"7	c #D9D9D9",
"8	c #9F9F9F",
"9	c #969696",
"0	c #D7D7D7",
"a	c #BFBFBF",
"b	c #9A9A99",
"c	c #C3C3C2",
"d	c #D8D8D8",
"e	c #959595",
"f	c #989898",
"g	c #C3C3C3",
"h	c #E4E4E4",
"i	c #979797",
"j	c #8F8F8F",
"k	c #D5D5D5",
"l	c #CDCDCD",
"m	c #CCCCCC",
"n	c #8E8E8E",
"o	c #BDBDBD",
"p	c #CBCBCB",
"q	c #C7C7C7",
"r	c #C0C0C0",
"s	c #C9C9C9",
"t	c #949494",
"u	c #CECECE",
"v	c #C1C1C1",
"w	c #B8B8B8",
"x	c #8C8C8C",
"y	c #8D8D8D",
"z	c #9C9C9C",
"A	c #C8C8C8",
"B	c #BCBCBC",
"C	c #CACACA",
"D	c #9A9A9A",
"E	c #838383",
"F	c #C2C2C2",
"G	c #BEBEBE",
"H	c #B9B9B9",
"I	c #BABABA",
"J	c #828282",
"K	c #A3A3A3",
"L	c #868686",
"M	c #7F7F7F",
"N	c #A5A5A5",
"O	c #B5B5B5",
"P	c #7D7D7D",
"Q	c #A0A0A0",
"R	c #D2D0CF",
"S	c #7C7C7C",
"T	c #787878",
"U	c #858585",
"V	c #CAC9C7",
"W	c #B1B0B0",
"....................",
"....................",
".........+..........",
"......@####$%.......",
".....&*=---=*;......",
"...>,')!~{]^)/(_....",
"....:<<[}|12<<:.....",
"..34^@@<$'56@@^78...",
"..9<00000abc00d<e...",
"..f%555559gh5557i...",
"..jklmmmmg)5mmlkn...",
"..eopqqqqrsqqqmot...",
"..3nuvvvvwvvvvux3...",
"...yzABBB7oBBCDx....",
"..._EfFGH}IGFtJK....",
"....3LMNIOHKPLQ.....",
".....RiLSTSU9V......",
"........WKW.........",
"....................",
"....................",
"...................."};
