/* XPM */
static char * maximizepressed_xpm[] = {
"20 21 138 2",
"  	c None",
". 	c #E1DFDD",
"+ 	c #96A6B9",
"@ 	c #869FBB",
"# 	c #7B99BC",
"$ 	c #7697BC",
"% 	c #95A5B8",
"& 	c #9AA8B8",
"* 	c #7D9ABB",
"= 	c #5687C0",
"- 	c #397AC4",
"; 	c #5989BF",
"> 	c #789CC4",
", 	c #5888BF",
"' 	c #99A7B7",
") 	c #97A7BA",
"! 	c #6C91BC",
"~ 	c #3D7CC5",
"{ 	c #AEB9C6",
"] 	c #D8D8D8",
"^ 	c #E3E3E3",
"/ 	c #D6D6D6",
"( 	c #D7D7D7",
"_ 	c #A3B3C6",
": 	c #3B7CC5",
"< 	c #ABB4C0",
"[ 	c #6E92BB",
"} 	c #4D85C4",
"| 	c #CECED0",
"1 	c #C2C2C2",
"2 	c #BCBCBC",
"3 	c #BBBBBB",
"4 	c #C3C3C3",
"5 	c #CACDD0",
"6 	c #4581C5",
"7 	c #9CA8B7",
"8 	c #839DBB",
"9 	c #3479C7",
"0 	c #CED0D3",
"a 	c #D5D5D5",
"b 	c #C1C1C1",
"c 	c #C8CCD2",
"d 	c #3278C7",
"e 	c #829CBA",
"f 	c #628BBB",
"g 	c #9DB3CC",
"h 	c #DADADA",
"i 	c #C6C6C6",
"j 	c #AAB7C6",
"k 	c #DBDBDB",
"l 	c #89A9CE",
"m 	c #A1ACBA",
"n 	c #8FA3B8",
"o 	c #3477C3",
"p 	c #D5D8DB",
"q 	c #D0D0D0",
"r 	c #CBCBCB",
"s 	c #8DA9C9",
"t 	c #2D75C7",
"u 	c #82A4C9",
"v 	c #D1D1D1",
"w 	c #CBD2DA",
"x 	c #8EA2B7",
"y 	c #869EB8",
"z 	c #2C75C7",
"A 	c #E0E0E0",
"B 	c #8EABCD",
"C 	c #367AC8",
"D 	c #B1C9E4",
"E 	c #3A7DC8",
"F 	c #85A6CC",
"G 	c #DEDFE0",
"H 	c #2B74C7",
"I 	c #839BB6",
"J 	c #3E80CA",
"K 	c #DCDCDC",
"L 	c #95B1D1",
"M 	c #367BC9",
"N 	c #CAD9EA",
"O 	c #EDEDED",
"P 	c #D2DFED",
"Q 	c #397CC9",
"R 	c #8CABD0",
"S 	c #DCDCDD",
"T 	c #3B7ECA",
"U 	c #889EB6",
"V 	c #DADCDE",
"W 	c #9AB6D5",
"X 	c #C9D8E9",
"Y 	c #E8E8E8",
"Z 	c #E7E7E7",
"` 	c #94B2D5",
" .	c #D7DADF",
"..	c #94A4B5",
"+.	c #4A7DB6",
"@.	c #BFCBD8",
"#.	c #DFDFDF",
"$.	c #EBEBEB",
"%.	c #E9E9E9",
"&.	c #EEEEEE",
"*.	c #E1E1E1",
"=.	c #B4C5D9",
"-.	c #D8D7D7",
";.	c #698AB0",
">.	c #578FCD",
",.	c #E6E6E6",
"'.	c #DBDDDF",
").	c #528CCD",
"!.	c #D0D0D1",
"~.	c #879AB0",
"{.	c #487BB4",
"].	c #8DAED4",
"^.	c #E1E2E2",
"/.	c #85A9D3",
"(.	c #7891AD",
"_.	c #3975BB",
":.	c #82A8D2",
"<.	c #D7DADD",
"[.	c #F0F0F0",
"}.	c #D5D9DE",
"|.	c #7FA6D2",
"1.	c #7790AB",
"2.	c #4D7AAD",
"3.	c #4584CA",
"4.	c #BDCAD8",
"5.	c #BFCCDB",
"6.	c #BDC9D8",
"7.	c #98B4D4",
"8.	c #4483CA",
"9.	c #8999AC",
"0.	c #6B87A7",
"a.	c #527AA8",
"b.	c #4075B2",
"c.	c #3874B8",
"d.	c #949FAD",
"e.	c #8A99AA",
"f.	c #8394A7",
"g.	c #8998A9",
". . . . . . . . . . . . . . . . . . . . ",
". . . . . . + @ # $ # @ % . . . . . . . ",
". . . . & * = - ; > , - = * ' . . . . . ",
". . . ) ! ~ { ] ^ / ^ ( _ : ! + . . . . ",
". . < [ } | ( 1 2 3 2 4 ] 5 6 [ 7 . . . ",
". . 8 9 0 a b b b b b b b / c d e . . . ",
". < f g h i i i i j i i i i k l f m . . ",
". n o p q r r r s t u r r r v w o x . . ",
". y z A v q q B C D E F q q v G H y . . ",
". I J K / / L M N O P Q R / / S T I . . ",
". U H V k k W X Y k Z P ` k k  .H U . . ",
". ..+.@.#.A O $.A A A %.&.A *.=.+.... . ",
". -.;.>.G ,.,.,.,.,.,.,.,.,.'.).;.!.. . ",
". . ~.{.].A $.$.$.$.$.$.$.^./.{.~.. . . ",
". . . (._.:.<.$.&.[.&.$.}.|._.(.. . . . ",
". . . -.1.2.3.W 4.5.6.7.8.2.1.!.. . . . ",
". . . . . 9.0.a.b.c.b.a.0.9.. . . . . . ",
". . . . . . . d.e.f.g.d.. . . . . . . . ",
". . . . . . . . . . . . . . . . . . . . ",
". . . . . . . . . . . . . . . . . . . . ",
". . . . . . . . . . . . . . . . . . . . "};
