/* XPM */
static char * maximize_xpm[] = {
"20 21 85 1",
" 	c None",
".	c #E1DFDD",
"+	c #C9C9C9",
"@	c #DBDBDB",
"#	c #F3F3F3",
"$	c #F2F2F2",
"%	c #D9D9D9",
"&	c #E9E9E9",
"*	c #EFEFEF",
"=	c #EDEDED",
"-	c #ECECEC",
";	c #E8E8E8",
">	c #E2E2E2",
",	c #EAEAEA",
"'	c #E6E6E6",
")	c #EBEBEB",
"!	c #E0E0E0",
"~	c #CFCECC",
"{	c #E7E7E7",
"]	c #E1E1E1",
"^	c #BDBDBD",
"/	c #A9A9A9",
"(	c #DADADA",
"_	c #DEDEDE",
":	c #DCDCDC",
"<	c #8F8E8E",
"[	c #171514",
"}	c #818080",
"|	c #9F9F9F",
"1	c #929292",
"2	c #D7D7D7",
"3	c #898988",
"4	c #222120",
"5	c #AAAAAA",
"6	c #262524",
"7	c #7E7E7D",
"8	c #D8D8D8",
"9	c #919191",
"0	c #959595",
"a	c #D1D1D1",
"b	c #898888",
"c	c #201F1E",
"d	c #C5C5C5",
"e	c #CDCDCD",
"f	c #242323",
"g	c #7F7E7E",
"h	c #949494",
"i	c #8C8C8C",
"j	c #D5D5D5",
"k	c #CCCCCC",
"l	c #C3C3C3",
"m	c #838382",
"n	c #8B8B8B",
"o	c #BCBCBC",
"p	c #CBCBCB",
"q	c #C7C7C7",
"r	c #E3E3E3",
"s	c #DFDFDF",
"t	c #B3B3B2",
"u	c #8D8D8D",
"v	c #CECECE",
"w	c #C1C1C1",
"x	c #8A8A8A",
"y	c #9B9B9B",
"z	c #C8C8C8",
"A	c #CACACA",
"B	c #999999",
"C	c #808080",
"D	c #979797",
"E	c #C2C2C2",
"F	c #BEBEBE",
"G	c #B9B9B9",
"H	c #B7B7B7",
"I	c #BABABA",
"J	c #BDBCBB",
"K	c #838383",
"L	c #7D7D7D",
"M	c #A4A4A4",
"N	c #B5B5B5",
"O	c #A2A2A2",
"P	c #7B7B7B",
"Q	c #939393",
"R	c #7A7A7A",
"S	c #767676",
"T	c #C6C5C4",
"....................",
"....................",
".........+..........",
"......@####$%.......",
".....&*=---=*;......",
"....>,''''''')!~....",
"....{]]]]^]]]]{.....",
"../(_:::<[}:::_%|...",
"..1]22234567228]9...",
"..0(aabcd)efgaa%h...",
"..ijekbl]k_emkejn...",
"..1opqrsqqq@'qk^1...",
"..tuvwwwwwwwwwvnt...",
"...xyzoooooooABx....",
"...~CDEFGHIFEhC~....",
"....JKLMINGOPKt.....",
"......QKRSPKQ.......",
".........T..........",
"....................",
"....................",
"...................."};
