/* XPM */
static char * maximizeunfocus_xpm[] = {
"20 21 82 1",
" 	c None",
".	c #E1DFDD",
"+	c #CDCDCD",
"@	c #DBDBDB",
"#	c #F3F3F3",
"$	c #F2F2F2",
"%	c #D9D9D9",
"&	c #E9E9E9",
"*	c #EFEFEF",
"=	c #EDEDED",
"-	c #ECECEC",
";	c #E8E8E8",
">	c #C7C6C5",
",	c #E2E2E2",
"'	c #EAEAEA",
")	c #E6E6E6",
"!	c #EBEBEB",
"~	c #E0E0E0",
"{	c #B5B5B4",
"]	c #E7E7E7",
"^	c #E1E1E1",
"/	c #D0D0D0",
"(	c #9C9C9C",
"_	c #DADADA",
":	c #DEDEDE",
"<	c #DCDCDC",
"[	c #BABABA",
"}	c #858584",
"|	c #B4B4B4",
"1	c #9B9B9B",
"2	c #929292",
"3	c #D7D7D7",
"4	c #B6B6B5",
"5	c #8A8A89",
"6	c #CECECE",
"7	c #8C8C8B",
"8	c #B1B1B1",
"9	c #D8D8D8",
"0	c #919191",
"a	c #959595",
"b	c #D1D1D1",
"c	c #B3B3B3",
"d	c #898988",
"e	c #8B8B8A",
"f	c #AFAFAF",
"g	c #949494",
"h	c #8C8C8C",
"i	c #D5D5D5",
"j	c #CCCCCC",
"k	c #B4B4B3",
"l	c #B2B2B1",
"m	c #8B8B8B",
"n	c #BCBCBC",
"o	c #CBCBCB",
"p	c #C7C7C7",
"q	c #E3E3E3",
"r	c #DFDFDF",
"s	c #BDBDBD",
"t	c #9D9D9D",
"u	c #8D8D8D",
"v	c #C1C1C1",
"w	c #8A8A8A",
"x	c #C8C8C8",
"y	c #CACACA",
"z	c #999999",
"A	c #808080",
"B	c #979797",
"C	c #C2C2C2",
"D	c #BEBEBE",
"E	c #B9B9B9",
"F	c #B7B7B7",
"G	c #A2A2A2",
"H	c #838383",
"I	c #7D7D7D",
"J	c #A4A4A4",
"K	c #B5B5B5",
"L	c #7B7B7B",
"M	c #939393",
"N	c #7A7A7A",
"O	c #767676",
"P	c #D8D7D5",
"Q	c #ACABAB",
"....................",
"....................",
".........+..........",
"......@####$%.......",
".....&*=---=*;......",
"...>,')))))))!~{....",
"....]^^^^/^^^^].....",
"..(_:<<<[}|<<<:%1...",
"..2^33345678339^0...",
"..a_bbcd<!~efbb%g...",
"..hi+jk_^j:~lj+im...",
"..2nopqrppp@)pjs2...",
"..tu6vvvvvvvvv6mt...",
"...w1xnnnnnnnyzw....",
"...{ABCDEF[DCgA{....",
"....GHIJ[KEGLHt.....",
"......MHNOLHMP......",
"........>Q>.........",
"....................",
"....................",
"...................."};
