/* XPM */
static char * menushade_xpm[] = {
"179 21 58 1",
" 	c None",
".	c #BFB8B5",
"+	c #C3BCB9",
"@	c #ADA8A6",
"#	c #686969",
"$	c #C0B9B6",
"%	c #C2BBB7",
"&	c #BCB5B2",
"*	c #8E8D8C",
"=	c #777879",
"-	c #7C7D7D",
";	c #9A9695",
">	c #9B9796",
",	c #8D8B8B",
"'	c #C1B9B6",
")	c #ABA5A3",
"!	c #8C8888",
"~	c #7E7D7E",
"{	c #989594",
"]	c #838383",
"^	c #C1BAB7",
"/	c #AAA3A2",
"(	c #8E8989",
"_	c #959190",
":	c #A59F9F",
"<	c #A39D9D",
"[	c #999594",
"}	c #A09B9A",
"|	c #ABA5A2",
"1	c #94908F",
"2	c #9D9998",
"3	c #AAA4A2",
"4	c #9D9797",
"5	c #A6A0A0",
"6	c #A49E9E",
"7	c #ADA7A7",
"8	c #AAA4A4",
"9	c #A8A2A2",
"0	c #A9A3A1",
"a	c #ABA5A5",
"b	c #A9A3A3",
"c	c #8D8888",
"d	c #8B8686",
"e	c #979191",
"f	c #AEA8A8",
"g	c #C0B8B5",
"h	c #BDB6B3",
"i	c #DBD3D3",
"j	c #8A8585",
"k	c #C7C0C0",
"l	c #C6BFBD",
"m	c #BEB7B4",
"n	c #CAC3C2",
"o	c #C1BAB8",
"p	c #C8C1C1",
"q	c #CBC4C4",
"r	c #D8D0D0",
"s	c #DCD4D4",
"...................................................................................................................................................................................",
"...+@#########################################################################################################################################################################@+...",
"$%&*=-;>;;;;;;;;;;;;;;;;;;;;;;;;;;;;;;;;;;;;;;;;;;;;;;;;;;;;;;;;;;;;;;;;;;;;;;;;;;;;;;;;;;;;;;;;;;;;;;;;;;;;;;;;;;;;;;;;;;;;;;;;;;;;;;;;;;;;;;;;;;;;;;;;;;;;;;;;;;;;;;;;;;;>,-=*&%.",
"')!~;;>;;;;;;;;;;;;;;;;;;;;;;;;;;;;;;;;;;;;;;;;;;;;;;;;;;;;;;;;;;;;;;;;;;;;;;;;;;;;;;;;;;;;;;;;;;;;;;;;;;;;;;;;;;;;;;;;;;;;;;;;;;;;;;;;;;;;;;;;;;;;;;;;;;;;;;;;;;;;;;;;;;;;;>{]~!)^",
"$/(_;;::<:::::::::::::::::::::::::::::::::::::::::::::::::::::::::::::::::::::::::::::::::::::::::::::::::::::::::::::::::::::::::::::::::::::::::::::::::::::::::::::::::<:[;;_(/^",
"$/(_;:}:::::::::::::::::::::::::::::::::::::::::::::::::::::::::::::::::::::::::::::::::::::::::::::::::::::::::::::::::::::::::::::::::::::::::::::::::::::::::::::::::::::::;_(/^",
"%|(12:::::::::::::::::::::::::::::::::::::::::::::::::::::::::::::::::::::::::::::::::::::::::::::::::::::::::::::::::::::::::::::::::::::::::::::::::::::::::::::::::::::::}:;_(/^",
"%3(45::::::::::::::::::::::::::::::::::::::::::::::::::::::::::::::::::::::::::::::::::::::::::::::::::::::::::::::::::::::::::::::::::::::::::::::::::::::::::::::::::::::::621(/^",
"%3(45:::::::::777777777777777777777777777777777777777777777777777777777777777777777777777777777777777777777777777777777777777777777777777777777777777777777777777777:::::::::621(/^",
"%3(45::::::::777777777777777777777777777777777777777777777777777777777777777777777777777777777777777777777777777777777777777777777777777777777777777777777777777777777:::::::6:1(/^",
"%3(45::::6:8777777777777777777777777777777777777777777777777777777777777777777777777777777777777777777777777777777777777777777777777777777777777777877777777777777777778:6:::6:1(/^",
"%3(45::669777777777777777777777777777777777777777777777777777777777777777777777777777777777777777777777777777777777777777777777777777777777777777777777777777777777777777966::54(0^",
"%3(45:65a77777777777777777777777777777777777777777777777777777777777777777777777777777777777777777777777777777777777777777777777777777777777777777777777777777777777777777a56:54(0^",
"%3(45:65a77777777777777777777777777777777777777777777777777777777777777777777777777777777777777777777777777777777777777777777777777777777777777777777777777777777777777777a56:54(0^",
"%3(456b777777777777777777777777777777777777777777777777777777777777777777777777777777777777777777777777777777777777777777777777777777777777777777777777777777777777777777777b654(0^",
"%3(456b777777777777777777777777777777777777777777777777777777777777777777777777777777777777777777777777777777777777777777777777777777777777777777777777777777777777777777777b654(0^",
"%3(456b777777777777777777777777777777777777777777777777777777777777777777777777777777777777777777777777777777777777777777777777777777777777777777777777777777777777777777777b654(0^",
"^)cdeaf777777777777777777777777777777777777777777777777777777777777777777777777777777777777777777777777777777777777777777777777777777777777777777777777777777777777777777777faedc3^",
"g^hijddddddddddddddddddddddddddddddddddddddddddddddddddddddddddddddddddddddddddddddddddddddddddddddddddddddddddddddddddddddddddddddddddddddddddddddddddddddddddddddddddddddddddiklm",
"mm.niiiiiiiiiiiiiiiiiiiiiiiiiiiiiiiiiiiiiiiiiiiiiiiiiiiiiiiiiiiiiiiiiiiiiiiiiiiiiiiiiiiiiiiiiiiiiiiiiiiiiiiiiiiiiiiiiiiiiiiiiiiiiiiiiiiiiiiiiiiiiiiiiiiiiiiiiiiiiiiiiiiiiiiiiiin.m.",
"..mmoppqrsiiiiiiiiiiiiiiiiiiiiiiiiiiiiiiiiiiiiiiiiiiiiiiiiiiiiiiiiiiiiiiiiiiiiiiiiiiiiiiiiiiiiiiiiiiiiiiiiiiiiiiiiiiiiiiiiiiiiiiiiiiiiiiiiiiiiiiiiiiiiiiiiiiiiiiiiiiiiiiisrqppomm.."};
