/* XPM */
static char * minimize_xpm[] = {
"20 21 89 1",
" 	c None",
".	c #E1DFDD",
"+	c #D4D3D2",
"@	c #DBDBDB",
"#	c #F3F3F3",
"$	c #F2F2F2",
"%	c #D9D9D9",
"&	c #E9E9E9",
"*	c #EFEFEF",
"=	c #EDEDED",
"-	c #ECECEC",
";	c #E8E8E8",
">	c #C8C7C6",
",	c #E2E2E2",
"'	c #EAEAEA",
")	c #E6E6E6",
"!	c #EBEBEB",
"~	c #E0E0E0",
"{	c #B7B6B5",
"]	c #E7E7E7",
"^	c #E1E1E1",
"/	c #9E9E9E",
"(	c #DADADA",
"_	c #DEDEDE",
":	c #DCDCDC",
"<	c #C0C0C0",
"[	c #D4D4D4",
"}	c #D6D6D6",
"|	c #BFBFBF",
"1	c #949494",
"2	c #D7D7D7",
"3	c #636262",
"4	c #424241",
"5	c #CECECE",
"6	c #D1D1D1",
"7	c #4B4B4A",
"8	c #575656",
"9	c #D8D8D8",
"0	c #939393",
"a	c #969696",
"b	c #E2E2E1",
"c	c #4E4E4D",
"d	c #40403F",
"e	c #C3C3C3",
"f	c #494948",
"g	c #444343",
"h	c #8D8D8D",
"i	c #D5D5D5",
"j	c #CDCDCD",
"k	c #CCCCCC",
"l	c #D3D3D3",
"m	c #4F4E4E",
"n	c #212020",
"o	c #464544",
"p	c #8C8C8C",
"q	c #BDBDBD",
"r	c #CBCBCB",
"s	c #C7C7C7",
"t	c #CFCFCF",
"u	c #5A5959",
"v	c #D0D0D0",
"w	c #929292",
"x	c #9F9F9F",
"y	c #C1C1C1",
"z	c #CACACA",
"A	c #8B8B8B",
"B	c #9B9B9B",
"C	c #C8C8C8",
"D	c #BCBCBC",
"E	c #9A9A9A",
"F	c #ADADAD",
"G	c #818181",
"H	c #979797",
"I	c #C2C2C2",
"J	c #BEBEBE",
"K	c #B9B9B9",
"L	c #B7B7B7",
"M	c #BABABA",
"N	c #A4A4A4",
"O	c #858585",
"P	c #7E7E7E",
"Q	c #B5B5B5",
"R	c #A3A3A3",
"S	c #7C7C7C",
"T	c #848484",
"U	c #D9D7D5",
"V	c #7B7B7B",
"W	c #787878",
"X	c #BFBFBE",
"....................",
"....................",
".........+..........",
"......@####$%.......",
".....&*=---=*;......",
"...>,')))))))!~{....",
"....]^^^^^^^^^].....",
"../(_:<[:::}|:_%/...",
"..1^22345267829^0...",
"..a(66bcdefg_66%1...",
"..hijkl=mno!ikjip...",
"..0qrsst-u'vsskqw...",
"..xh5yyyz#kyyy5p/...",
"...ABCDDDDDDDzEA....",
"...FGHIJKLMJI1GF....",
"....NOPNMQKRST/.....",
".....U1TVWVT1U......",
"........XF{.........",
"....................",
"....................",
"...................."};
