/* XPM */
static char * minimizepressed_xpm[] = {
"20 21 148 2",
"  	c None",
". 	c #E1DFDD",
"+ 	c #98A8BB",
"@ 	c #88A1BD",
"# 	c #7C9ABD",
"$ 	c #7798BD",
"% 	c #87A0BC",
"& 	c #9CAABA",
"* 	c #7F9CBD",
"= 	c #5788C1",
"- 	c #397AC4",
"; 	c #5989BF",
"> 	c #789CC4",
", 	c #5888BF",
"' 	c #5687C0",
") 	c #7D9ABB",
"! 	c #99A9BC",
"~ 	c #6D92BD",
"{ 	c #3D7CC5",
"] 	c #AFBAC7",
"^ 	c #D8D8D8",
"/ 	c #E3E3E3",
"( 	c #D6D6D6",
"_ 	c #D7D7D7",
": 	c #A3B3C6",
"< 	c #3B7CC5",
"[ 	c #9FABBA",
"} 	c #6F93BC",
"| 	c #4D85C4",
"1 	c #CECED0",
"2 	c #C2C2C2",
"3 	c #BCBCBC",
"4 	c #BBBBBB",
"5 	c #C3C3C3",
"6 	c #CACDD0",
"7 	c #4581C5",
"8 	c #9EAAB9",
"9 	c #849EBC",
"0 	c #3479C7",
"a 	c #CED0D3",
"b 	c #D5D5D5",
"c 	c #C1C1C1",
"d 	c #C8CCD2",
"e 	c #3278C7",
"f 	c #A4AFBD",
"g 	c #638CBC",
"h 	c #9DB3CC",
"i 	c #DADADA",
"j 	c #C6C6C6",
"k 	c #DBDBDB",
"l 	c #89A9CE",
"m 	c #90A4B9",
"n 	c #3477C3",
"o 	c #D5D8DB",
"p 	c #D0D0D0",
"q 	c #CBCBCB",
"r 	c #B4BECA",
"s 	c #C5C8CB",
"t 	c #C6C9CB",
"u 	c #B4BFCB",
"v 	c #D1D1D1",
"w 	c #CBD2DA",
"x 	c #879FB9",
"y 	c #2C75C7",
"z 	c #E0E0E0",
"A 	c #6E99CB",
"B 	c #528AC9",
"C 	c #C8CBCF",
"D 	c #CACDCF",
"E 	c #5A8ECA",
"F 	c #6494CA",
"G 	c #DEDFE0",
"H 	c #2B74C7",
"I 	c #859DB8",
"J 	c #3E80CA",
"K 	c #DCDCDC",
"L 	c #E4E6E8",
"M 	c #6094CF",
"N 	c #538BCA",
"O 	c #C9CED4",
"P 	c #5B8FCB",
"Q 	c #578ECD",
"R 	c #E1E4E8",
"S 	c #DCDCDD",
"T 	c #3B7ECA",
"U 	c #849CB7",
"V 	c #899FB7",
"W 	c #DADCDE",
"X 	c #DFDFDF",
"Y 	c #EFF1F3",
"Z 	c #6296D0",
"` 	c #387CC9",
" .	c #5990CE",
"..	c #EDF0F3",
"+.	c #E1E1E1",
"@.	c #D7DADF",
"#.	c #889EB6",
"$.	c #96A6B7",
"%.	c #4A7DB6",
"&.	c #BFCBD8",
"*.	c #E4E4E4",
"=.	c #6B9DD4",
"-.	c #ECEFF3",
";.	c #B4C5D9",
">.	c #D1D1D2",
",.	c #6A8BB1",
"'.	c #578FCD",
").	c #E6E6E6",
"!.	c #E9E9E9",
"~.	c #F5F5F5",
"{.	c #DBDDDF",
"].	c #528CCD",
"^.	c #C8CACD",
"/.	c #899CB2",
"(.	c #487BB4",
"_.	c #8DAED4",
":.	c #EBEBEB",
"<.	c #E1E2E2",
"[.	c #85A9D3",
"}.	c #7992AE",
"|.	c #3A76BC",
"1.	c #82A8D2",
"2.	c #D7DADD",
"3.	c #EEEEEE",
"4.	c #F0F0F0",
"5.	c #D5D9DE",
"6.	c #7FA6D2",
"7.	c #3975BB",
"8.	c #C8CACC",
"9.	c #7891AC",
"0.	c #4D7AAD",
"a.	c #4584CA",
"b.	c #9AB6D5",
"c.	c #BDCAD8",
"d.	c #BFCCDB",
"e.	c #BDC9D8",
"f.	c #98B4D4",
"g.	c #4483CA",
"h.	c #7790AB",
"i.	c #8A9AAD",
"j.	c #6C88A8",
"k.	c #527AA8",
"l.	c #4075B2",
"m.	c #3874B8",
"n.	c #6B87A7",
"o.	c #96A1AF",
"p.	c #8A99AA",
"q.	c #8495A8",
". . . . . . . . . . . . . . . . . . . . ",
". . . . . . + @ # $ # % + . . . . . . . ",
". . . . & * = - ; > , - ' ) & . . . . . ",
". . . ! ~ { ] ^ / ( / _ : < ~ + . . . . ",
". . [ } | 1 _ 2 3 4 3 5 ^ 6 7 } 8 . . . ",
". . 9 0 a b c c c c c c c ( d e 9 . . . ",
". f g h i j j j j j j j j j k l g [ . . ",
". m n o p q r s q q q t u q v w n m . . ",
". x y z v p A B C p D E F p v G H x . . ",
". I J K ( ( L M N O P Q R ( ( S T U . . ",
". V H W k k X Y Z `  ...+.k k @.H #.. . ",
". $.%.&.X z z *.Y =.-.*.z z +.;.%.$.. . ",
". >.,.'.G ).).).!.~.!.).).).{.].,.^.. . ",
". . /.(._.z :.:.:.:.:.:.:.<.[.(./.. . . ",
". . . }.|.1.2.:.3.4.3.:.5.6.7.}.. . . . ",
". . . 8.9.0.a.b.c.d.e.f.g.0.h.8.. . . . ",
". . . . . i.j.k.l.m.l.k.n.i.. . . . . . ",
". . . . . . . o.p.q.p.o.. . . . . . . . ",
". . . . . . . . . . . . . . . . . . . . ",
". . . . . . . . . . . . . . . . . . . . ",
". . . . . . . . . . . . . . . . . . . . "};
