/* XPM */
static char * minimizeunfocus_xpm[] = {
"20 21 86 1",
" 	c None",
".	c #E1DFDD",
"+	c #D4D3D2",
"@	c #DBDBDB",
"#	c #F3F3F3",
"$	c #F2F2F2",
"%	c #D9D9D9",
"&	c #E9E9E9",
"*	c #EFEFEF",
"=	c #EDEDED",
"-	c #ECECEC",
";	c #E8E8E8",
">	c #C8C7C6",
",	c #E2E2E2",
"'	c #EAEAEA",
")	c #E6E6E6",
"!	c #EBEBEB",
"~	c #E0E0E0",
"{	c #B7B6B5",
"]	c #E7E7E7",
"^	c #E1E1E1",
"/	c #9E9E9E",
"(	c #DADADA",
"_	c #DEDEDE",
":	c #DCDCDC",
"<	c #D0D0CF",
"[	c #D8D8D8",
"}	c #CFCFCF",
"|	c #949494",
"1	c #D7D7D7",
"2	c #A6A6A5",
"3	c #989897",
"4	c #D3D3D3",
"5	c #D4D4D4",
"6	c #9C9C9B",
"7	c #A0A0A0",
"8	c #939393",
"9	c #969696",
"0	c #D1D1D1",
"a	c #E5E5E5",
"b	c #9E9E9D",
"c	c #969695",
"d	c #CBCBCB",
"e	c #9A9A99",
"f	c #999999",
"g	c #E3E3E3",
"h	c #8D8D8D",
"i	c #D5D5D5",
"j	c #CDCDCD",
"k	c #CCCCCC",
"l	c #F0F0F0",
"m	c #898988",
"n	c #8C8C8C",
"o	c #BDBDBD",
"p	c #C7C7C7",
"q	c #A4A4A4",
"r	c #EEEEEE",
"s	c #D0D0D0",
"t	c #929292",
"u	c #9F9F9F",
"v	c #CECECE",
"w	c #C1C1C1",
"x	c #CACACA",
"y	c #8B8B8B",
"z	c #9B9B9B",
"A	c #C8C8C8",
"B	c #BCBCBC",
"C	c #9A9A9A",
"D	c #ADADAD",
"E	c #818181",
"F	c #979797",
"G	c #C2C2C2",
"H	c #BEBEBE",
"I	c #B9B9B9",
"J	c #B7B7B7",
"K	c #BABABA",
"L	c #858585",
"M	c #7E7E7E",
"N	c #B5B5B5",
"O	c #A3A3A3",
"P	c #7C7C7C",
"Q	c #848484",
"R	c #D9D7D5",
"S	c #7B7B7B",
"T	c #787878",
"U	c #BFBFBE",
"....................",
"....................",
".........+..........",
"......@####$%.......",
".....&*=---=*;......",
"...>,')))))))!~{....",
"....]^^^^^^^^^].....",
"../(_:<[:::%}:_%/...",
"..|^1123415671[^8...",
"..9(00abcdefg00%|...",
"..hijk4lbme*ikjin...",
"..8odpp}*qrsppkot...",
"..uhvwwwx#kwwwvn/...",
"...yzABBBBBBBxCy....",
"...DEFGHIJKHG|ED....",
"....qLMqKNIOPQ/.....",
".....R|QSTSQ|R......",
"........UD{.........",
"....................",
"....................",
"...................."};
