/* XPM */
static char * shadeunfocus_xpm[] = {
"20 21 84 1",
" 	c None",
".	c #E1DFDD",
"+	c #D0CFCF",
"@	c #DEDEDE",
"#	c #F8F8F8",
"$	c #F7F7F7",
"%	c #DDDDDD",
"&	c #EEEEEE",
"*	c #F4F4F4",
"=	c #F2F2F2",
"-	c #F1F1F1",
";	c #EDEDED",
">	c #C0BFBE",
",	c #E6E6E6",
"'	c #EFEFEF",
")	c #E8E8E8",
"!	c #EAEAEA",
"~	c #F0F0F0",
"{	c #E4E4E4",
"]	c #B7B7B6",
"^	c #ECECEC",
"/	c #E5E5E5",
"(	c #AAAAA9",
"_	c #ACACAB",
":	c #B2B2B1",
"<	c #A4A4A3",
"[	c #9E9E9E",
"}	c #E2E2E2",
"|	c #E0E0E0",
"1	c #989897",
"2	c #AAAAAA",
"3	c #DFDFDF",
"4	c #AFAFAE",
"5	c #949494",
"6	c #E1E1E1",
"7	c #959595",
"8	c #DBDBDB",
"9	c #959594",
"0	c #939393",
"a	c #DCDCDC",
"b	c #979797",
"c	c #D5D5D5",
"d	c #969696",
"e	c #E9E9E9",
"f	c #8D8D8D",
"g	c #D9D9D9",
"h	c #D1D1D1",
"i	c #D0D0D0",
"j	c #CFCFCF",
"k	c #CBCBCB",
"l	c #D6D6D6",
"m	c #F3F3F3",
"n	c #C0C0C0",
"o	c #878786",
"p	c #A6A6A5",
"q	c #C1C1C1",
"r	c #A0A0A0",
"s	c #8F8F8F",
"t	c #D2D2D2",
"u	c #C5C5C5",
"v	c #DADADA",
"w	c #8C8C8C",
"x	c #CCCCCC",
"y	c #C7C7C7",
"z	c #D3D3D3",
"A	c #C9C9C9",
"B	c #CECECE",
"C	c #9C9C9C",
"D	c #828282",
"E	c #9A9A9A",
"F	c #C6C6C6",
"G	c #C2C2C2",
"H	c #BDBDBD",
"I	c #BBBBBB",
"J	c #BEBEBE",
"K	c #868686",
"L	c #808080",
"M	c #A8A8A8",
"N	c #B9B9B9",
"O	c #A6A6A6",
"P	c #7E7E7E",
"Q	c #7D7D7D",
"R	c #797979",
"S	c #C9C7C6",
"....................",
"....................",
".........+..........",
"......@####$%.......",
".....&*=---=*;......",
"...>,')!!!!!)~{]....",
"....^/(_{//:</^.....",
"..[@}|{123456|}%[...",
"..7/88{~190^/8a/5...",
"..b@ccc|~de}ccc%d...",
"..fghijklmgkjihgf...",
"..0njk(ooooopkiq0...",
"..rstuv^^^^^autfr...",
"...w[xyzzzzzABCw....",
"...]DEFGHIJGFdD]....",
"....rKLMJNHOPKr.....",
"......dKQRQKd.......",
"........S]S.........",
"....................",
"....................",
"...................."};
