/* XPM */
static char * shade_xpm[] = {
"20 21 85 1",
" 	c None",
".	c #E1DFDD",
"+	c #CDCDCD",
"@	c #DFDFDF",
"#	c #F8F8F8",
"$	c #F7F7F7",
"%	c #DEDEDE",
"&	c #EEEEEE",
"*	c #F4F4F4",
"=	c #F2F2F2",
"-	c #F1F1F1",
";	c #EDEDED",
">	c #B7B6B5",
",	c #E6E6E6",
"'	c #EFEFEF",
")	c #E5E5E4",
"!	c #EAEAEA",
"~	c #F0F0F0",
"{	c #E4E4E4",
"]	c #ADADAD",
"^	c #EBEBEB",
"/	c #E5E5E5",
"(	c #605F5E",
"_	c #646463",
":	c #E3E3E3",
"<	c #70706F",
"[	c #525151",
"}	c #9D9D9D",
"|	c #E2E2E2",
"1	c #E0E0E0",
"2	c #DCDCDB",
"3	c #383837",
"4	c #626261",
"5	c #6D6D6C",
"6	c #31302F",
"7	c #D6D6D6",
"8	c #939393",
"9	c #DCDCDC",
"0	c #E6E6E5",
"a	c #353534",
"b	c #302F2E",
"c	c #DDDDDD",
"d	c #969696",
"e	c #363434",
"f	c #959595",
"g	c #8D8D8D",
"h	c #DADADA",
"i	c #D1D1D1",
"j	c #D0D0D0",
"k	c #C3C3C3",
"l	c #CECECE",
"m	c #CCCCCC",
"n	c #929292",
"o	c #C0C0C0",
"p	c #CFCFCF",
"q	c #CBCBCB",
"r	c #706F6F",
"s	c #121110",
"t	c #C1C1C1",
"u	c #9E9E9E",
"v	c #8F8F8F",
"w	c #D2D2D2",
"x	c #C5C5C5",
"y	c #DBDBDB",
"z	c #8B8B8B",
"A	c #C7C7C7",
"B	c #D3D3D3",
"C	c #C9C9C9",
"D	c #9B9B9B",
"E	c #818181",
"F	c #999999",
"G	c #C6C6C6",
"H	c #C2C2C2",
"I	c #BDBDBD",
"J	c #BABABA",
"K	c #BEBEBE",
"L	c #858585",
"M	c #7F7F7F",
"N	c #A7A7A7",
"O	c #B8B8B8",
"P	c #A5A5A5",
"Q	c #7D7D7D",
"R	c #7C7C7C",
"S	c #787878",
"T	c #BFBFBE",
"....................",
"....................",
".........+..........",
"......@####$%.......",
".....&*=---=*;......",
"...>,')!!!!!)~{]....",
"....^/(_://<[/^.....",
"..}@|1234@5671|%}...",
"..8/99{03ab@/9c/8...",
"..d@77710e9|777%f...",
"..ghij+kl!ikmjihg...",
"..nopqrsssss_qjtn...",
"..uvwxy^^^^^cxwgu...",
"...z}mABBBBBClDz....",
"...]EFGHIJKHGfE]....",
"....uLMNKOIPQLu.....",
"......fLRSRLf.......",
"........T]T.........",
"....................",
"....................",
"...................."};
