/* XPM */
static char * shadepressed_xpm[] = {
"20 21 140 2",
"  	c None",
". 	c #E1DFDD",
"+ 	c #98A9BC",
"@ 	c #88A1BF",
"# 	c #7D9BC0",
"$ 	c #7899C0",
"% 	c #9CABBB",
"& 	c #7F9CBF",
"* 	c #5789C3",
"= 	c #3B7DC8",
"- 	c #5B8CC3",
"; 	c #7B9FC8",
"> 	c #5A8BC3",
", 	c #6E94C0",
"' 	c #3F7FC9",
") 	c #B2BDCA",
"! 	c #DDDDDD",
"~ 	c #E8E8E8",
"{ 	c #DBDBDB",
"] 	c #DCDCDC",
"^ 	c #A7B7CA",
"/ 	c #3D7FC9",
"( 	c #9EABBA",
"_ 	c #6F95BF",
": 	c #4F88C8",
"< 	c #D2D2D4",
"[ 	c #C6C6C6",
"} 	c #C1C1C1",
"| 	c #C0C0C0",
"1 	c #C7C7C7",
"2 	c #CED1D4",
"3 	c #4684C9",
"4 	c #849EBD",
"5 	c #367CCB",
"6 	c #D2D4D8",
"7 	c #DADADA",
"8 	c #C1C3C5",
"9 	c #C5C5C5",
"0 	c #CCD0D7",
"a 	c #347BCB",
"b 	c #9FACBB",
"c 	c #648DBF",
"d 	c #A0B7D0",
"e 	c #DFDFDF",
"f 	c #CACACA",
"g 	c #6696CA",
"h 	c #6A98CB",
"i 	c #C8C9CA",
"j 	c #729CCB",
"k 	c #5C91CB",
"l 	c #E0E0E0",
"m 	c #8CADD2",
"n 	c #92A5BB",
"o 	c #367AC7",
"p 	c #D9DCDF",
"q 	c #D4D4D4",
"r 	c #CFCFCF",
"s 	c #D6DCE2",
"t 	c #4B89CE",
"u 	c #6B98CD",
"v 	c #CDCECF",
"w 	c #739DCD",
"x 	c #4585CD",
"y 	c #D0D9E2",
"z 	c #D6D6D6",
"A 	c #CFD7DF",
"B 	c #88A0BB",
"C 	c #2D78CB",
"D 	c #E5E5E5",
"E 	c #E9EFF5",
"F 	c #4C8ACF",
"G 	c #4987CD",
"H 	c #4586CE",
"I 	c #E3EAF4",
"J 	c #E2E2E2",
"K 	c #E3E4E5",
"L 	c #2C77CB",
"M 	c #859DB9",
"N 	c #4083CE",
"O 	c #E1E1E1",
"P 	c #E4E4E4",
"Q 	c #4B8AD0",
"R 	c #E1E9F3",
"S 	c #E6E6E6",
"T 	c #E1E1E2",
"U 	c #3D81CE",
"V 	c #899FB8",
"W 	c #DFE1E3",
"X 	c #DEDFE0",
"Y 	c #D3D9DE",
"Z 	c #DBE0E5",
"` 	c #EDF2F7",
" .	c #DEE3E8",
"..	c #DDDEE0",
"+.	c #DCDFE4",
"@.	c #97A7B8",
"#.	c #4C80BA",
"$.	c #C3CFDD",
"%.	c #8AAFD9",
"&.	c #7EA8D7",
"*.	c #B8C9DE",
"=.	c #C9CBCD",
"-.	c #6B8CB3",
";.	c #5993D1",
">.	c #EAEAEA",
",.	c #F2F2F2",
"'.	c #F6F6F6",
").	c #E0E2E4",
"!.	c #5490D1",
"~.	c #8A9DB4",
"{.	c #497DB7",
"].	c #91B2D9",
"^.	c #F4F4F4",
"/.	c #E6E7E7",
"(.	c #88ADD8",
"_.	c #7B95B1",
":.	c #3B78C0",
"<.	c #85ACD7",
"[.	c #DCDFE2",
"}.	c #F0F0F0",
"|.	c #F3F3F3",
"1.	c #F5F5F5",
"2.	c #DADEE3",
"3.	c #82AAD7",
"4.	c #7993AE",
"5.	c #4E7CB0",
"6.	c #4687CE",
"7.	c #9DBADA",
"8.	c #C1CEDD",
"9.	c #C3D0E0",
"0.	c #C1CDDD",
"a.	c #9BB8D9",
"b.	c #8C9CB0",
"c.	c #6E8AAB",
"d.	c #547DAC",
"e.	c #4278B6",
"f.	c #3A77BC",
"g.	c #97A1B0",
"h.	c #8B9AAC",
"i.	c #8597AA",
". . . . . . . . . . . . . . . . . . . . ",
". . . . . . + @ # $ # @ + . . . . . . . ",
". . . . % & * = - ; > = * & % . . . . . ",
". . . + , ' ) ! ~ { ~ ] ^ / , + . . . . ",
". . ( _ : < ] [ } | } 1 ! 2 3 _ ( . . . ",
". . 4 5 6 7 8 9 9 9 9 9 8 { 0 a 4 . . . ",
". b c d e f g h i f f j k f l m c b . . ",
". n o p q r s t u v w x y r z A o n . . ",
". B C D z q l E F G H I J q z K L B . . ",
". M N O { { { P E Q R S { { { T U M . . ",
". V L W l l X Y Z `  .Y ..l l +.L V . . ",
". @.#.$.P D %.L L L L L &.D S *.#.@.. . ",
". =.-.;.K >.,.'.'.'.'.'.,.>.).!.-.=.. . ",
". . ~.{.].D ,.^.^.^.^.^.,./.(.{.~.. . . ",
". . . _.:.<.[.}.|.1.|.}.2.3.:._.. . . . ",
". . . =.4.5.6.7.8.9.0.a.H 5.4.=.. . . . ",
". . . . . b.c.d.e.f.e.d.c.b.. . . . . . ",
". . . . . . . g.h.i.h.g.. . . . . . . . ",
". . . . . . . . . . . . . . . . . . . . ",
". . . . . . . . . . . . . . . . . . . . ",
". . . . . . . . . . . . . . . . . . . . "};
