/* XPM */
static char * unshadeunfocus_xpm[] = {
"20 21 96 2",
"  	c None",
". 	c #E1DFDD",
"+ 	c #CECECD",
"@ 	c #DEDEDE",
"# 	c #F8F8F8",
"$ 	c #F7F7F7",
"% 	c #DCDCDC",
"& 	c #EEEEEE",
"* 	c #F4F4F4",
"= 	c #F2F2F2",
"- 	c #F1F1F1",
"; 	c #EDEDED",
"> 	c #9E9E9E",
", 	c #E6E6E6",
"' 	c #EFEFEF",
") 	c #EAEAEA",
"! 	c #F0F0F0",
"~ 	c #E4E4E4",
"{ 	c #9D9D9D",
"] 	c #ECECEC",
"^ 	c #E5E5E5",
"/ 	c #C8C8C8",
"( 	c #888887",
"_ 	c #C3C3C2",
": 	c #D9D7D5",
"< 	c #989898",
"[ 	c #E2E2E2",
"} 	c #E0E0E0",
"| 	c #C3C3C3",
"1 	c #8D8D8C",
"2 	c #C7C7C6",
"3 	c #8E8E8D",
"4 	c #BFBFBF",
"5 	c #979797",
"6 	c #8D8D8D",
"7 	c #DBDBDB",
"8 	c #C1C1C1",
"9 	c #8C8C8B",
"0 	c #D7D7D7",
"a 	c #DDDDDD",
"b 	c #BCBCBC",
"c 	c #909090",
"d 	c #D5D5D5",
"e 	c #B4B4B4",
"f 	c #D7D7D6",
"g 	c #E8E8E8",
"h 	c #DCDCDB",
"i 	c #B3B3B2",
"j 	c #8F8F8F",
"k 	c #D0CFCD",
"l 	c #858585",
"m 	c #D9D9D9",
"n 	c #D1D1D1",
"o 	c #D0D0D0",
"p 	c #E9E9E9",
"q 	c #E3E3E3",
"r 	c #CBCBCB",
"s 	c #898989",
"t 	c #CFCFCF",
"u 	c #ABABAA",
"v 	c #878786",
"w 	c #A7A7A6",
"x 	c #C0C0C0",
"y 	c #929292",
"z 	c #8A8A8A",
"A 	c #D2D2D2",
"B 	c #C5C5C5",
"C 	c #DADADA",
"D 	c #888888",
"E 	c #818181",
"F 	c #9B9B9B",
"G 	c #CCCCCC",
"H 	c #C7C7C7",
"I 	c #D3D3D3",
"J 	c #C9C9C9",
"K 	c #CECECE",
"L 	c #999999",
"M 	c #787878",
"N 	c #C6C6C6",
"O 	c #C2C2C2",
"P 	c #BDBDBD",
"Q 	c #BBBBBB",
"R 	c #BEBEBE",
"S 	c #939393",
"T 	c #B6B5B5",
"U 	c #7B7B7B",
"V 	c #7A7A7A",
"W 	c #A6A6A6",
"X 	c #B8B8B8",
"Y 	c #A4A4A4",
"Z 	c #797979",
"` 	c #7F7F7F",
" .	c #959595",
"..	c #747474",
"+.	c #707070",
"@.	c #7C7C7C",
". . . . . . . . . . . . . . . . . . . . ",
". . . . . . . . . . . . . . . . . . . . ",
". . . . . . . . . + . . . . . . . . . . ",
". . . . . . @ # # # # $ % . . . . . . . ",
". . . . . & * = - - - = * ; . . . . . . ",
". . . > , ' ) ) ) , ) ) ) ! ~ { . . . . ",
". . . . ] ^ ^ ^ / ( _ ^ ^ ^ ] . : . . . ",
". . < @ [ } } | 1 2 3 4 } } [ % 5 . . . ",
". . 6 ^ 7 7 8 9 0 * a 1 b 7 % ^ 6 . . . ",
". : c @ d d e f ] d g h i d d a j : . . ",
". k l m n o p q r r r } ; o n m l k . . ",
". k s 4 t r u v v v v v w r o x s k . . ",
". . y z A B C ] ] ] ] ] % B A D y . . . ",
". . > E F G H I I I I I J K L E > . . . ",
". . . y M 5 N O P Q R O N S M y . . . . ",
". . . T c U V W P X b Y Z `  .. . . . . ",
". . . . . < s U ..+...@.S . . . . . . . ",
". . . . . . . . : F L T . . . . . . . . ",
". . . . . . . . . . . . . . . . . . . . ",
". . . . . . . . . . . . . . . . . . . . ",
". . . . . . . . . . . . . . . . . . . . "};
