/* XPM */
static char * unshade_xpm[] = {
"20 21 102 2",
"  	c None",
". 	c #E1DFDD",
"+ 	c #DDDBD9",
"@ 	c #DADADA",
"# 	c #F3F3F3",
"$ 	c #F2F2F2",
"% 	c #D8D8D8",
"& 	c #D9D7D5",
"* 	c #E9E9E9",
"= 	c #EFEFEF",
"- 	c #EDEDED",
"; 	c #ECECEC",
"> 	c #E8E8E8",
", 	c #D1CFCE",
"' 	c #9B9B9B",
") 	c #E2E2E2",
"! 	c #EAEAEA",
"~ 	c #E6E6E6",
"{ 	c #DCDCDC",
"] 	c #EBEBEB",
"^ 	c #E0E0E0",
"/ 	c #9A9A9A",
"( 	c #C8C7C6",
"_ 	c #E7E7E7",
": 	c #E1E1E1",
"< 	c #A1A1A1",
"[ 	c #161514",
"} 	c #949493",
"| 	c #ADADAD",
"1 	c #969696",
"2 	c #DEDEDE",
"3 	c #21201F",
"4 	c #929292",
"5 	c #232221",
"6 	c #919191",
"7 	c #949494",
"8 	c #8A8A8A",
"9 	c #D7D7D7",
"0 	c #1F1E1D",
"a 	c #B4B4B4",
"b 	c #C0BFBF",
"c 	c #8E8E8E",
"d 	c #8D8D8D",
"e 	c #D1D1D1",
"f 	c #7E7D7D",
"g 	c #E4E4E4",
"h 	c #BEBDBD",
"i 	c #797878",
"j 	c #D9D9D9",
"k 	c #8C8C8C",
"l 	c #828282",
"m 	c #D5D5D5",
"n 	c #CDCDCD",
"o 	c #CCCCCC",
"p 	c #E3E3E3",
"q 	c #BFBFBF",
"r 	c #D4D4D4",
"s 	c #E5E5E5",
"t 	c #A4A4A4",
"u 	c #868686",
"v 	c #BBBBBB",
"w 	c #CBCBCB",
"x 	c #C7C7C7",
"y 	c #706F6F",
"z 	c #141312",
"A 	c #646463",
"B 	c #BCBCBC",
"C 	c #909090",
"D 	c #878787",
"E 	c #CECECE",
"F 	c #C1C1C1",
"G 	c #D6D6D6",
"H 	c #858585",
"I 	c #8F8F8F",
"J 	c #B7B6B5",
"K 	c #808080",
"L 	c #989898",
"M 	c #C8C8C8",
"N 	c #C3C3C3",
"O 	c #CFCFCF",
"P 	c #C5C5C5",
"Q 	c #CACACA",
"R 	c #7E7E7E",
"S 	c #999999",
"T 	c #9C9C9C",
"U 	c #777777",
"V 	c #C2C2C2",
"W 	c #BEBEBE",
"X 	c #B9B9B9",
"Y 	c #B7B7B7",
"Z 	c #BABABA",
"` 	c #757575",
" .	c #787878",
"..	c #A2A2A2",
"+.	c #B8B8B8",
"@.	c #A0A0A0",
"#.	c #717171",
"$.	c #6D6D6D",
"%.	c #9F9F9F",
"&.	c #979797",
"*.	c #959595",
"=.	c #9E9E9E",
". . . . . . . . . . . . . . . . . . . . ",
". . . . . . . . . . . . . . . . . . . . ",
". . . . . . . . . + . . . . . . . . . . ",
". . . . . . @ # # # # $ % . . . . . . . ",
". . . . & * = - ; ; ; - = > , . . . . . ",
". . . ' ) ! ~ ~ ~ { ~ ~ ~ ] ^ / . . . . ",
". . ( . _ : : : < [ } : : : _ . | . . . ",
". . 1 @ 2 { { ' 3 4 5 6 { { 2 % 7 . . . ",
". . 8 : 9 9 / 0 a = b 3 c 9 % : 8 & . . ",
". . d @ e e f a _ e g h i e e j k | . . ",
". . l m n o p 9 q q q r s o n m l t . . ",
". . u v w x y z z z z z A x o B u t . . ",
". . C D E F G _ _ _ _ _ % F E H I | . . ",
". . J K L M N O O O O O P Q 1 R S & . . ",
". . . T U 7 V W X Y Z W V C ` I t . . . ",
". . . . 1  .U ..X a +.@.`  .d ( . . . . ",
". . . . . | k  .#.$.#. .u 7 ( . . . . . ",
". . . . . . . %.S &.*.S =.. . . . . . . ",
". . . . . . . . . . . . . . . . . . . . ",
". . . . . . . . . . . . . . . . . . . . ",
". . . . . . . . . . . . . . . . . . . . "};
