/* XPM */
static char * unshadepressed_xpm[] = {
"20 21 156 2",
"  	c None",
". 	c #E1DFDD",
"+ 	c #95A6B9",
"@ 	c #86A0BC",
"# 	c #7B99BD",
"$ 	c #7697BD",
"% 	c #98A7B7",
"& 	c #7C99BB",
"* 	c #5788C2",
"= 	c #3B7DC8",
"- 	c #5C8CC3",
"; 	c #7A9EC7",
"> 	c #5B8BC3",
", 	c #94A5B8",
"' 	c #6C91BD",
") 	c #3F7FC9",
"! 	c #B2BDCA",
"~ 	c #DCDCDC",
"{ 	c #E7E7E7",
"] 	c #DADADA",
"^ 	c #DBDBDB",
"/ 	c #A7B7CA",
"( 	c #3D7FC9",
"_ 	c #99A6B5",
": 	c #6D91BB",
"< 	c #4E87C7",
"[ 	c #D2D2D4",
"} 	c #C6C6C6",
"| 	c #C0C0C0",
"1 	c #BFBFBF",
"2 	c #C7C7C7",
"3 	c #CED1D4",
"4 	c #4784C9",
"5 	c #9BA7B5",
"6 	c #809AB9",
"7 	c #367CCB",
"8 	c #D1D3D6",
"9 	c #D9D9D9",
"0 	c #C5C5C5",
"a 	c #BEC2C5",
"b 	c #CCD0D6",
"c 	c #347BCB",
"d 	c #618ABB",
"e 	c #A0B6CF",
"f 	c #DEDEDE",
"g 	c #CACACA",
"h 	c #99B1CB",
"i 	c #2E78CB",
"j 	c #90ABCB",
"k 	c #DFDFDF",
"l 	c #8CADD2",
"m 	c #8A9EB4",
"n 	c #3579C6",
"o 	c #D8DBDE",
"p 	c #D4D4D4",
"q 	c #CFCFCF",
"r 	c #9BB3CE",
"s 	c #377DCC",
"t 	c #A0BFE2",
"u 	c #397ECC",
"v 	c #92AECD",
"w 	c #D5D5D5",
"x 	c #CFD6DE",
"y 	c #8199B4",
"z 	c #E4E4E4",
"A 	c #A0B7D1",
"B 	c #BED2E9",
"C 	c #F3F3F3",
"D 	c #C8D8EC",
"E 	c #96B2D1",
"F 	c #E2E3E4",
"G 	c #2D77CB",
"H 	c #7D95B1",
"I 	c #4083CE",
"J 	c #E0E0E0",
"K 	c #8EB0D5",
"L 	c #C0D3EA",
"M 	c #EEEEEE",
"N 	c #ECECEC",
"O 	c #C8D9ED",
"P 	c #89ADD5",
"Q 	c #E0E0E1",
"R 	c #3D81CE",
"S 	c #8197B0",
"T 	c #DEE0E2",
"U 	c #EEEFF0",
"V 	c #E2E7ED",
"W 	c #D3D8DD",
"X 	c #E0E5EA",
"Y 	c #EFF0F2",
"Z 	c #DBDEE3",
"` 	c #8A9AAC",
" .	c #487CB6",
"..	c #C2CEDB",
"+.	c #E3E3E3",
"@.	c #8AAFD8",
"#.	c #7FA9D7",
"$.	c #E5E5E5",
"%.	c #B8C9DD",
"&.	c #979EA9",
"*.	c #6485AC",
"=.	c #5A92D1",
"-.	c #EAEAEA",
";.	c #F2F2F2",
">.	c #F6F6F6",
",.	c #DFE1E3",
"'.	c #558FD1",
").	c #A4A7AB",
"!.	c #7E91A8",
"~.	c #467AB4",
"{.	c #8FB1D7",
"].	c #F4F4F4",
"^.	c #E5E6E6",
"/.	c #88ADD7",
"(.	c #7F91A8",
"_.	c #C8C8C8",
":.	c #9B9FA6",
"<.	c #7089A6",
"[.	c #3976BD",
"}.	c #85ACD6",
"|.	c #DBDEE1",
"1.	c #F0F0F0",
"2.	c #F5F5F5",
"3.	c #D9DDE2",
"4.	c #82AAD6",
"5.	c #738BA6",
"6.	c #9FA3A9",
"7.	c #949BA5",
"8.	c #6F88A4",
"9.	c #4A78AC",
"0.	c #4787CE",
"a.	c #9DBAD9",
"b.	c #C1CEDC",
"c.	c #C3D0DF",
"d.	c #C1CDDC",
"e.	c #9BB8D8",
"f.	c #4686CE",
"g.	c #728AA4",
"h.	c #B7B9BC",
"i.	c #9EA1A6",
"j.	c #808FA3",
"k.	c #6682A3",
"l.	c #4F78A7",
"m.	c #3F75B3",
"n.	c #3875BA",
"o.	c #8190A3",
"p.	c #D1D0CF",
"q.	c #BFC0C1",
"r.	c #989CA3",
"s.	c #8994A3",
"t.	c #7F8EA0",
"u.	c #7A8B9E",
"v.	c #818FA1",
"w.	c #8D97A4",
"x.	c #9DA1A6",
"y.	c #B7B9BA",
". . . . . . . . . . . . . . . . . . . . ",
". . . . . . + @ # $ # @ + . . . . . . . ",
". . . . % & * = - ; > = * & % . . . . . ",
". . . , ' ) ! ~ { ] { ^ / ( ' , . . . . ",
". . _ : < [ ^ } | 1 | 2 ~ 3 4 : 5 . . . ",
". . 6 7 8 9 0 0 0 a 0 0 0 ] b c 6 . . . ",
". _ d e f g g g h i j g g g k l d _ . . ",
". m n o p q q r s t u v q q w x n m . . ",
". y i z w p A s B C D s E p w F G y . . ",
". H I J ] ] K L M ] N O P ] ] Q R H . . ",
". S G T k k U V W W W X Y k k Z G S . . ",
". `  ...+.z @.G G G G G #.z $.%. .` . . ",
". &.*.=.F -.;.>.>.>.>.>.;.-.,.'.*.&.. . ",
". ).!.~.{.z ;.].].].].].;.^./.~.(._.. . ",
". . :.<.[.}.|.1.C 2.C 1.3.4.[.5.6.. . . ",
". . . 7.8.9.0.a.b.c.d.e.f.9.g.h.. . . . ",
". . . . i.j.k.l.m.n.m.l.k.o.p.. . . . . ",
". . . . . q.r.s.t.u.v.w.x.. . . . . . . ",
". . . . . . . . . y.. . . . . . . . . . ",
". . . . . . . . . . . . . . . . . . . . ",
". . . . . . . . . . . . . . . . . . . . "};
