/* XPM */
static char * bard_xpm[] = {
"156 22 101 2",
"  	c None",
". 	c #83C8D5",
"+ 	c #FFFFFF",
"@ 	c #F9FCFD",
"# 	c #F9FBFD",
"$ 	c #F9FDFD",
"% 	c #F8FCFD",
"& 	c #FAFBFD",
"* 	c #F9FDFC",
"= 	c #F8FDFE",
"- 	c #F0F7FA",
"; 	c #F0F8FA",
"> 	c #F0F8F9",
", 	c #F0F7F9",
"' 	c #EFF9FA",
") 	c #F0F9FA",
"! 	c #F1F9FA",
"~ 	c #E7F5F6",
"{ 	c #E7F5F7",
"] 	c #E7F4F7",
"^ 	c #E7F3F7",
"/ 	c #DDF0F3",
"( 	c #DCF0F3",
"_ 	c #DEF0F2",
": 	c #DEF0F3",
"< 	c #DEEFF4",
"[ 	c #DDEFF4",
"} 	c #DEF0F4",
"| 	c #DEF1F4",
"1 	c #DDF1F4",
"2 	c #D4EBF1",
"3 	c #D3ECF1",
"4 	c #D4ECF0",
"5 	c #D5ECF0",
"6 	c #D5EDF1",
"7 	c #D5ECF1",
"8 	c #D5EBF1",
"9 	c #CBE8ED",
"0 	c #CCE7EC",
"a 	c #CBE8EC",
"b 	c #CAE8EC",
"c 	c #CAE8ED",
"d 	c #CBE9ED",
"e 	c #CBE7EE",
"f 	c #CCE8EE",
"g 	c #CCE9EE",
"h 	c #C2E4EA",
"i 	c #C2E4EB",
"j 	c #C2E4E9",
"k 	c #C2E3EA",
"l 	c #C1E4EA",
"m 	c #C2E5EB",
"n 	c #C3E5EA",
"o 	c #C3E5EB",
"p 	c #B9E0E7",
"q 	c #B9E1E7",
"r 	c #B9E1E6",
"s 	c #B9DFE7",
"t 	c #B8E0E6",
"u 	c #BAE0E7",
"v 	c #BADFE8",
"w 	c #BADFE7",
"x 	c #BAE1E8",
"y 	c #B0DCE5",
"z 	c #B0DBE5",
"A 	c #B0DCE4",
"B 	c #AFDBE4",
"C 	c #B0DBE4",
"D 	c #B1DCE3",
"E 	c #B1DDE4",
"F 	c #B1DCE4",
"G 	c #A6D7E2",
"H 	c #A5D7E2",
"I 	c #A7D8E2",
"J 	c #A6D8E1",
"K 	c #A7D7E1",
"L 	c #A8D8E2",
"M 	c #A7D8E1",
"N 	c #A7D7E0",
"O 	c #A6D9E1",
"P 	c #9ED4DE",
"Q 	c #9ED3DD",
"R 	c #9ED3DE",
"S 	c #9DD3DD",
"T 	c #9FD4DF",
"U 	c #9FD5DF",
"V 	c #95D1DB",
"W 	c #95D1DA",
"X 	c #95D0DA",
"Y 	c #94CFDB",
"Z 	c #94D0DB",
"` 	c #95D0DB",
" .	c #96D0DB",
"..	c #96CFDC",
"+.	c #8CCBD8",
"@.	c #8BCCD8",
"#.	c #8ACDD8",
"$.	c #8BCCD7",
"%.	c #8CCCD7",
"&.	c #8CCDD8",
"*.	c #8CCCD8",
". . . . . . . . . . . . . . . . . . . . . . . . . . . . . . . . . . . . . . . . . . . . . . . . . . . . . . . . . . . . . . . . . . . . . . . . . . . . . . . . . . . . . . . . . . . . . . . . . . . . . . . . . . . . . . . . . . . . . . . . . . . . . . . . . . . . . . . . . . . . . . . . . . . . . . . . . . . . ",
". . . . . . . . . . . . . . . . . . . . . . . . . . . . . . . . . . . . . . . . . . . . . . . . . . . . . . . . . . . . . . . . . . . . . . . . . . . . . . . . . . . . . . . . . . . . . . . . . . . . . . . . . . . . . . . . . . . . . . . . . . . . . . . . . . . . . . . . . . . . . . . . . . . . . . . . . . . . ",
". . . + + + + + + + + + + + + + + + + + + + + + + + + + + + + + + + + + + + + + + + + + + + + + + + + + + + + + + + + + + + + + + + + + + + + + + + + + + + + + + + + + + + + + + + + + + + + + + + + + + + + + + + + + + + + + + + + + + + + + + + + + + + + + + + + + + + + + + + + + + + + + + + + + + + + + + . . . ",
". . + + + + + + + + + + + + + + + + + + + + + + + + + + + + + + + + + + + + + + + + + + + + + + + + + + + + + + + + + + + + + + + + + + + + + + + + + + + + + + + + + + + + + + + + + + + + + + + + + + + + + + + + + + + + + + + + + + + + + + + + + + + + + + + + + + + + + + + + + + + + + + + + + + + + + + + + . . ",
". . + + + + + + + + + + + + + + + + + + + + + + + + + + + + + + + + + + + + + + + + + + + + + + + + + + + + + + + + + + + + + + + + + + + + + + + + + + + + + + + + + + + + + + + + + + + + + + + + + + + + + + + + + + + + + + + + + + + + + + + + + + + + + + + + + + + + + + + + + + + + + + + + + + + + + + + + . . ",
". + + + + + + + + + + + + + + + + + + + + + + + + + + + + + + + + + + + + + + + + + + + + + + + + + + + + + + + + + + + + + + + + + + + + + + + + + + + + + + + + + + + + + + + + + + + + + + + + + + + + + + + + + + + + + + + + + + + + + + + + + + + + + + + + + + + + + + + + + + + + + + + + + + + + + + + + + + . ",
". + + + + + + + + + + + + + + + + + + + + + + + + + + + + + + + + + + + + + + + + + + + + + + + + + + + + + + + + + + + + + + + + + + + + + + + + + + + + + + + + + + + + + + + + + + + + + + + + + + + + + + + + + + + + + + + + + + + + + + + + + + + + + + + + + + + + + + + + + + + + + + + + + + + + + + + + + + . ",
". + + + + + + + + + + + + + + + + + + + + + + + + + + + + + + + + + + + + + + + + + + + + + + + + + + + + + + + + + + + + + + + + + + + + + + + + + + + + + + + + + + + + + + + + + + + + + + + + + + + + + + + + + + + + + + + + + + + + + + + + + + + + + + + + + + + + + + + + + + + + + + + + + + + + + + + + + + . ",
". @ @ # # # # @ @ @ @ @ @ @ @ @ @ @ @ @ @ $ $ $ $ $ $ $ $ $ $ $ $ $ $ @ @ @ @ @ @ @ @ @ @ @ @ @ @ @ @ @ @ @ @ @ @ @ @ @ @ @ @ @ % % % % % % % % % % % % % % # # # # # # # # # # # # # # & & & & & & & & & & & & & & @ @ @ @ @ @ @ @ @ @ @ @ @ @ @ * * * * * * * * * * * * * * $ $ $ $ $ $ $ $ $ $ $ $ $ $ = = = = = = . ",
". - - - - - - - - - - - - - - - - - - - - ; ; ; ; ; ; ; ; ; ; ; ; ; ; > > > > > > > > > > > > > > > , , , , , , , , , , , , , , - - - - - - - - - - - - - - ; ; ; ; ; ; ; ; ; ; ; ; ; ; ' ' ' ' ' ' ' ' ' ' ' ' ' ' ) ) ) ) ) ) ) ) ) ) ) ) ) ) ) ; ; ; ; ; ; ; ; ; ; ; ; ; ; ; ; ; ; ; ; ; ; ; ; ; ; ; ; ! ! ! ! ! ! . ",
". ~ ~ ~ { { { ~ ~ ~ ~ ~ ~ ~ ~ ~ ~ ~ ~ ~ ~ ~ ~ ~ ~ ~ ~ ~ ~ ~ ~ ~ ~ ~ ~ ] ] ] ] ] ] ] ] ] ] ] ] ] ] ] ^ ^ ^ ^ ^ ^ ^ ^ ^ ^ ^ ^ ^ ^ ] ] ] ] ] ] ] ] ] ] ] ] ] ] { { { { { { { { { { { { { { { { { { { { { { { { { { { { ] ] ] ] ] ] ] ] ] ] ] ] ] ] ] ] ] ] ] ] ] ] ] ] ] ] ] ] ] { { { { { { { { { { { { { { { { { { { { . ",
". / / ( ( ( ( / / / / / / / / / / / / / / _ _ _ _ _ _ _ _ _ _ _ _ _ _ : : : : : : : : : : : : : : : < < < < < < < < < < < < < < : : : : : : : : : : : : : : : : : : : : : : : : : : : : < < < < < < < < < < < < < < [ [ [ [ [ [ [ [ [ [ [ [ [ [ [ } } } } } } } } } } } } } } | | | | | | | | | | | | | | 1 1 1 1 1 1 . ",
". 2 2 2 2 2 2 2 2 2 2 2 2 2 2 2 2 2 2 2 2 3 3 3 3 3 3 3 3 3 3 3 3 3 3 4 4 4 4 4 4 4 4 4 4 4 4 4 4 4 5 5 5 5 5 5 5 5 5 5 5 5 5 5 6 6 6 6 6 6 6 6 6 6 6 6 6 6 6 6 6 6 6 6 6 6 6 6 6 6 6 6 6 6 6 6 6 6 6 6 6 6 6 6 6 6 7 7 7 7 7 7 7 7 7 7 7 7 7 7 7 8 8 8 8 8 8 8 8 8 8 8 8 8 8 7 7 7 7 7 7 7 7 7 7 7 7 7 7 6 6 6 6 6 6 . ",
". 9 9 9 0 0 0 9 9 9 9 9 9 9 9 9 9 9 9 9 9 9 9 9 9 9 9 9 9 9 9 9 9 9 9 a a a a a a a a a a a a a a a b b b b b b b b b b b b b b c c c c c c c c c c c c c c d d d d d d d d d d d d d d 9 9 9 9 9 9 9 9 9 9 9 9 9 9 e e e e e e e e e e e e e e e f f f f f f f f f f f f f f g g g g g g g g g g g g g g g g g g g g . ",
". h h i i i i h h h h h h h h h h h h h h j j j j j j j j j j j j j j h h h h h h h h h h h h h h h k k k k k k k k k k k k k k l l l l l l l l l l l l l l m m m m m m m m m m m m m m n n n n n n n n n n n n n n n n n n n n n n n n n n n n n o o o o o o o o o o o o o o o o o o o o o o o o o o o o o o o o o o . ",
". p p q r r r p p p p p p p p p p p p p p s s s s s s s s s s s s s s t t t t t t t t t t t t t t t r r r r r r r r r r r r r r u u u u u u u u u u u u u u v v v v v v v v v v v v v v w w w w w w w w w w w w w w u u u u u u u u u u u u u u u u u u u u u u u u u u u u u u u u u u u u u u u u u u u x x x x x x . ",
". y y y z z z y y y y y y y y y y y y y y A A A A A A A A A A A A A A B B B B B B B B B B B B B B B y y y y y y y y y y y y y y y y y y y y y y y y y y y y C C C C C C C C C C C C C C D D D D D D D D D D D D D D E E E E E E E E E E E E E E E F F F F F F F F F F F F F F D D D D D D D D D D D D D D E E E E E E . ",
". . G H H H H G G G G G G G G G G G G G G I I I I I I I I I I I I I I I I I I I I I I I I I I I I I I I I I I I I I I I I I I I J J J J J J J J J J J J J J K K K K K K K K K K K K K K L L L L L L L L L L L L L L M M M M M M M M M M M M M M M N N N N N N N N N N N N N N M M M M M M M M M M M M M M O O O O O O . ",
". . P P Q Q Q P P P P P P P P P P P P P P P P P P P P P P P P P P P P Q Q Q Q Q Q Q Q Q Q Q Q Q Q Q P P P P P P P P P P P P P P R R R R R R R R R R R R R R P P P P P P P P P P P P P P P P P P P P P P P P P P P P S S S S S S S S S S S S S S S R R R R R R R R R R R R R R T T T T T T T T T T T T T T U U U U U . . ",
". . V V W W W V V V V V V V V V V V V V V V V V V V V V V V V V V V V X X X X X X X X X X X X X X X Y Y Y Y Y Y Y Y Y Y Y Y Y Y Z Z Z Z Z Z Z Z Z Z Z Z Z Z X X X X X X X X X X X X X X ` ` ` ` ` ` ` ` ` ` ` ` ` ` Y Y Y Y Y Y Y Y Y Y Y Y Y Y Y X X X X X X X X X X X X X X  . . . . . . . . . . . . . ............ . ",
". . +.+.+.+.+.+.+.+.+.+.+.+.+.+.+.+.+.@.#.@.$.@.$.@.@.@.@.@.@.@.@.@.@.%.%.%.%.%.%.%.%.%.%.%.%.%.%.%.&.&.&.&.&.&.&.&.&.&.&.&.&.&.@.@.@.@.@.@.@.@.@.@.@.@.@.@.$.$.$.$.$.$.$.$.$.$.$.$.$.$.*.*.*.*.*.*.*.*.*.*.*.*.*.*.+.+.+.+.+.+.+.+.+.+.+.+.+.+.+.+.+.+.+.+.+.+.+.+.+.+.+.+.+.+.+.+.+.+.+.+.+.+.+.+.+.+.+.+.+.+.+.+.. . ",
". . . . . . . . . . . . . . . . . . . . . . . . . . . . . . . . . . . . . . . . . . . . . . . . . . . . . . . . . . . . . . . . . . . . . . . . . . . . . . . . . . . . . . . . . . . . . . . . . . . . . . . . . . . . . . . . . . . . . . . . . . . . . . . . . . . . . . . . . . . . . . . . . . . . . . . . . . . . "};
