/* XPM */
static char * dl_xpm[] = {
"28 22 75 1",
" 	c #F9F9F9",
".	c #EFEFEF",
"+	c #E8E8E8",
"@	c #E6E6E6",
"#	c #E4E4E4",
"$	c #E3E3E3",
"%	c #8B8B8B",
"&	c #505050",
"*	c #2D2D2D",
"=	c #262626",
"-	c #282828",
";	c #E2E2E2",
">	c #6F6F6F",
",	c #464646",
"'	c #878787",
")	c #AEAEAE",
"!	c #BBBBBB",
"~	c #C0C0C0",
"{	c #BFBFBF",
"]	c #434343",
"^	c #9A9A9A",
"/	c #D0D0D0",
"(	c #E0E0E0",
"_	c #E9E9E9",
":	c #8C8C8C",
"<	c #E1E1E1",
"[	c #525252",
"}	c #767676",
"|	c #B3B3B3",
"1	c #CDCDCD",
"2	c #D6D6D6",
"3	c #D8D8D8",
"4	c #D7D7D7",
"5	c #DFDFDF",
"6	c #363636",
"7	c #939393",
"8	c #C4C4C4",
"9	c #CACACA",
"0	c #CBCBCB",
"a	c #CCCCCC",
"b	c #DDDDDD",
"c	c #393939",
"d	c #A1A1A1",
"e	c #C9C9C9",
"f	c #D5D5D5",
"g	c #DCDCDC",
"h	c #DEDEDE",
"i	c #383838",
"j	c #DBDBDB",
"k	c #595959",
"l	c #999999",
"m	c #F3F3F3",
"n	c #F7F7F7",
"o	c #F8F8F8",
"p	c #D9D9D9",
"q	c #8A8A8A",
"r	c #575757",
"s	c #BDBDBD",
"t	c #FAFAFA",
"u	c #FCFCFC",
"v	c #FDFDFD",
"w	c #7D7D7D",
"x	c #4F4F4F",
"y	c #959595",
"z	c #C3C3C3",
"A	c #979797",
"B	c #5B5B5B",
"C	c #1F1F1F",
"D	c #212121",
"E	c #2F2F2F",
"F	c #D3D3D3",
"G	c #D1D1D1",
"H	c #D2D2D2",
"I	c #CFCFCF",
"J	c #CECECE",
"                            ",
"............................",
"++++++++++++++++++++++++++++",
"@@@@@@@@@@@@@@@@@@@@@@@@@@@@",
"@@@@@@@@@@@@@@@@@@@@@@@@@@@@",
"@@@@@@@@@@@@@@@@@@@@@@@@@@@@",
"#####$%&*=--------=*&%$#####",
"$$$$;>,')!~{{~~{{~!)',>;$$$$",
";;;;%]^/(@________@(/^]:;;;<",
"(((([}|12333444433321|}[((((",
"555567!890aa0990aa098!765555",
"bbbbcdefgh(h5((5h(hgfedibbbb",
"jjjjkl0#m n o  o n m#0lkjjjj",
"ppppqrs#tuvvvvvvvvut#srqpppp",
"4444pwxyz2ppppppppjayxwp4444",
"22223pAB*CDDDDDDDDCEBAp32222",
"FFFFFff43(((((((((g342fFFFFF",
"GGGGGGH3pbbbbbbbbbhp3HGGGGGG",
"IIIIIIIIIIIIIIIIIIIIIIIIIIIJ",
"aaaaaaaaaaaaaaaaaaaaaaaaaaaa",
"9999999999999999999999999999",
"::::::::::::::::::::::::::::"};
